
<!-- Generator: Adobe Illustrator 24.0.0, SVG Export Plug-In . SVG Version: 6.00 Build 0)  -->
<svg version="1.1" id="Layer_1" xmlns="http://www.w3.org/2000/svg" xmlns:xlink="http://www.w3.org/1999/xlink" x="0px" y="0px"
	 viewBox="0 0 874.6 673.1" style="enable-background:new 0 0 874.6 673.1;" xml:space="preserve">
<style type="text/css">
  .outline{fill:#3F3D56;}
  .bg_leaf{fill:#E86124;}
  .tree{fill:#D0CDE1;}
  .box_1{fill:#E86124;}
  .box_2{fill:#E86124;}
  .box_3{fill:#E86124;}
  .box_4{fill:#E86124;}
  .l_box_1{fill:#E86124;}
  .l_box_2{fill:#E86124;}
  .l_box_3{fill:#E86124;}
  .l_box_4{fill:#E86124;}
	.st0{fill:#2F2E41;}
	.st1{fill:#3F3D56;}
	.st2{fill:#FFFFFF;}
	.st3{fill:#FFB9B9;}
	.st4{opacity:0.1;enable-background:new    ;}
	.st5{fill:#E86124;}
	.st6{fill:#E6E6E6;}
	.st7{fill:#D0CDE1;}

  .outline {
        animation: activeMoveline 01.5s ease-in-out infinite alternate;
    }
    
    @keyframes activeMoveline {
        0% {
            transform: translateY(0px);
        }
        100% {
            transform: translateY(3px);
        }
    }

    .bg_leaf {
        animation: activeMoveleaf 0.9s ease-in-out infinite alternate;
    }
    
    @keyframes activeMoveleaf {
        0% {
            transform: translateX(0px);
        }
        100% {
            transform: translateX(-3px);
        }
    }

    .tree {
        animation: activeMovetree 0.9s ease-in-out infinite alternate;
    }
    
    @keyframes activeMovetree {
        0% {
            transform: translateX(0px);
        }
        100% {
            transform: translateX(-5px);
        }
    }

    .box_1 {
        animation: activeMovebox 1.9s ease-in-out infinite alternate;
    }
    
    @keyframes activeMovebox {
        0% {
            transform: translateX(0px);
        }
        100% {
            transform: translateX(-15px);
             opacity:0;
        }
    }

    .box_2 {
        animation: activeMovebox2 1.9s ease-in-out infinite alternate;
    }
    
    @keyframes activeMovebox2 {
        0% {
            transform: translateX(0px);
        }
        100% {
            transform: translateX(-14px);
             opacity:0;
        }
    }

    .box_3 {
        animation: activeMovebox3 1.6s ease-in-out infinite alternate;
    }
    
    @keyframes activeMovebox3 {
        0% {
            transform: translateX(0px);
        }
        100% {
            transform: translateX(-12px);
             opacity:0;
        }
    }

    .box_4 {
        animation: activeMovebox4 1.2s ease-in-out infinite alternate;
    }
    
    @keyframes activeMovebox4 {
        0% {
            transform: translateX(0px);
        }
        100% {
            transform: translateX(-10px);
            opacity:0;
        }
    }

    .l_box_1 {
        animation: activeMovelastbox 1.9s ease-in-out infinite alternate;
    }
    
    @keyframes activeMovelastbox {
        0% {
            transform: translateX(0px);
        }
        100% {
            transform: translateX(15px);
             opacity:0;
        }
    }

    .l_box_2 {
        animation: activeMovelastbox2 1.9s ease-in-out infinite alternate;
    }
    
    @keyframes activeMovelastbox2 {
        0% {
            transform: translateX(0px);
        }
        100% {
            transform: translateX(14px);
             opacity:0;
        }
    }

    .l_box_3 {
        animation: activeMovelastbox3 1.6s ease-in-out infinite alternate;
    }
    
    @keyframes activeMovelastbox3 {
        0% {
            transform: translateX(0px);
        }
        100% {
            transform: translateX(12px);
             opacity:0;
        }
    }

    .l_box_4 {
        animation: activeMovelastbox4 1.2s ease-in-out infinite alternate;
    }
    
    @keyframes activeMovelastbox4 {
        0% {
            transform: translateX(0px);
        }
        100% {
            transform: translateX(10px);
            opacity:0;
        }
    }
</style>
<g id="Group_14" transform="translate(-203 -155.811)">
	<rect id="Rectangle_22" x="203" y="827.1" class="st0" width="874.6" height="1.6"/>
	<path id="Path_96-3651" class="st1" d="M1008.6,315.8h-3.7V214.4c0-32.4-26.2-58.6-58.6-58.6c0,0,0,0,0,0H731.6
		c-32.4,0-58.6,26.3-58.6,58.6v555.8c0,32.4,26.3,58.6,58.6,58.6c0,0,0,0,0,0h214.6c32.4,0,58.6-26.3,58.6-58.6v0V387.9h3.7
		L1008.6,315.8z"/>
	<path id="Path_97-3652" class="st2" d="M992.4,214.9v555c0,24.2-19.6,43.8-43.8,43.8H733c-24.2,0-43.8-19.6-43.8-43.8v-555
		c0-24.2,19.6-43.8,43.8-43.8h26.2c-4.3,10.6,0.8,22.8,11.4,27.1c2.5,1,5.1,1.5,7.8,1.5h123c11.5,0,20.8-9.3,20.8-20.8
		c0-2.7-0.5-5.3-1.5-7.8h28C972.8,171.1,992.4,190.7,992.4,214.9L992.4,214.9z"/>
	<g id="Group_11" transform="translate(746.713 292.765)">
		<path id="Path_66-3653" class="st0" d="M58.7,8.6c0,0-1.9-6.9-4.8-8.6v8.6c0,0-11.5-1.7-19.7,6.9l7.7,1.7c0,0-11.3,3.7-13.7,19.9
			l4.8-2.3L46,62.4l8.2-15l16.3,16.7l-3.8-9.2l6.2,2.9l-4.3-7.5L87.7,59l-1.4-4.6l7,11.8c0,0,24.1-25-2.2-51.5
			C91.1,14.7,79.1,2,58.7,8.6z"/>
		<path id="Path_67-3654" class="st3" d="M56.5,70.1c0,0,7.1,27.2,5,30.7s20.7,22.9,20.7,22.9l22.2-4.3l1.4-30.7
			c0,0-20-17.2-15.7-30L56.5,70.1z"/>
		<path id="Path_68-3655" class="st4" d="M56.5,70.1c0,0,7.1,27.2,5,30.7s20.7,22.9,20.7,22.9l22.2-4.3l1.4-30.7
			c0,0-20-17.2-15.7-30L56.5,70.1z"/>
		<path id="Path_69-3656" class="st0" d="M37.9,241.6c0,0-5.7,35.7-1.4,65.1s6.4,50.8,4.3,55s-4.3,3.6-2.9,8.6s4.3,2.9,1.4,7.9
			s-2.1,13.6-2.1,15.7s-3.6,48.6,0,53.6s5,4.3,5,4.3l4.3,25.7l22.9-3.6l-3.6-23.6c0,0,8.6-4.3,5-7.1s-5.7-2.9-3.6-2.9
			s5.7-0.7,2.9-2.1s-0.7-40-0.7-40s5-70.8,25-68.6s35.7,43.6,35.7,43.6l5.7,18.6c0,0,2.1,35,3.6,37.9s0.7,3.6,0,5s-5.7-2.1-0.7,3.6
			s5,7.9,5,7.9l3.2,37.5l23.2-14.6v-22.2c0,0,4.3-7.1,2.9-12.9s-1.4-32.9,0-37.9s0.7-6.4-0.7-8.6s-5-0.7-2.1-5.7s5-17.9,0.7-27.2
			S143,253.8,133,248.8S37.9,241.6,37.9,241.6z"/>
		<path id="Path_70-3657" class="st1" d="M69.3,461.8c0,0-16.4-2.9-17.2,1.4c-0.4,3.6-0.4,7.2,0,10.7c0,0-5.7,0.7-5,5.7
			s1.4,18.6,1.4,18.6s-8.9,21.1-3.9,26.1c0,0,9.9-0.4,15.5-0.4h20.6c0,0,2.9-10,0-11.4c-2.9-1.4-9.3-14.3-8.6-17.2s0-23.6,0-23.6
			L69,472L69.3,461.8z"/>
		<path id="Path_71-3658" class="st1" d="M153,474.7l-8.6,6.4c0,0,3.6,12.2,1.4,14.3s-6.8,26.8-2.5,28.2s30.7-0.7,30.7-0.7
			s29.7,1.1,30.4-0.4s2.1-10-6.4-12.9s-13.6-2.1-16.4-10.7s-9.3-21.4-9.3-21.4l-1.4-15.7c0,0-8.6,1.4-10,1.4s-8.6,3.6-7.9,6.4
			C153.4,471.3,153.4,473,153,474.7z"/>
		<ellipse id="Ellipse_12" class="st3" cx="68.6" cy="49.4" rx="29.7" ry="29.7"/>
		<path id="Path_72-3659" class="st5" d="M87.9,100.1l10.7-18.7c0,0,25-1.3,26.4,1.6s13.6,144.4,13.6,144.4s5.7,7.9,2.1,12.9l-3.6,5
			v10c0,0-17.9,14.3-42.2,11.4s-55-15.7-55-15.7l6.4-40L45.8,93l14.4-7c0,0,16.3,11.3,19.2,14.9S87.9,100.1,87.9,100.1z"/>
		<path id="Path_73-3660" class="st6" d="M62.9,100.1l-3.2-18.9l-44,31.1L40,183.7c0,0-15,27.2-12.2,37.2s4.3,25,4.3,25
			s38.6,10,37.9,5s0-27.2,0-27.2s12.5-92.6,6.2-106.7S62.9,100.1,62.9,100.1z"/>
		<path id="Path_74-3661" class="st6" d="M102.2,90.8l-6.8-13.2c0-0.4,48.2,6.3,50.4,10.4L140.1,198c0,0,0.7,15.7,4.3,20
			s2.9,11.4,1.4,12.2s-25,7.9-25,7.9s-22.9-39.3-20.7-86.5S102.2,90.8,102.2,90.8z"/>
		<path id="Path_75-3662" class="st6" d="M137.2,88.7l7.6-1.6c3,1.7,5.3,4.2,6.7,7.3c2.1,5,27.2,58.6,27.2,62.2s0.7,30-15,30
			s-27.9-67.2-27.9-67.2L137.2,88.7z"/>
		<path id="Path_76-3663" class="st3" d="M30,273.8l12.9,19.3l7.1-24.3l-5-7.1L30,273.8z"/>
		<path id="Path_77-3664" class="st6" d="M22.2,113l-6.4-0.7L0,196.6L27.2,281l23.6-17.9l-16.4-56.5L40,163L22.2,113z"/>
		<path id="Path_78-3665" class="st0" d="M99.6,41c-3.9-14.3-16.2-24.8-30.8-24.8C58.5,16.3,48.9,21.5,43.2,30l7.3,14.1L57.8,32
			l14.6,13.5L69,38.1l5.6,2.3l-3.9-6l17.2,7l-1.3-3.7l8.2,10.7C96.8,46.1,98.4,43.6,99.6,41z"/>
		<path id="Path_79-3666" class="st4" d="M132.6,123.3l19.3,16.8l-10-21.8L132.6,123.3z"/>
		<path id="Path_81-3667" class="st3" d="M124.4,120.8c0,0-9.3-28.6-20.7-23.6s4.3,35,4.3,35l10,6.4L124.4,120.8z"/>
		<path id="Path_82-3668" class="st6" d="M173.7,157.3l-50-39.3l-17.9,26.5c0,0,47.2,50,57.9,40S173.7,157.3,173.7,157.3z"/>
	</g>
	<g id="Group_13" transform="translate(-7.7 -11.931)">
		<rect id="Rectangle_55" x="351.5" y="346.4" class="box_1" width="47.5" height="11.4"/>
		<rect id="Rectangle_56" x="546.9" y="346.4" class="box_3" width="16.7" height="11.4"/>
		<rect id="Rectangle_57" x="580.3" y="346.4" class="box_4" width="16.7" height="11.4"/>
		<rect id="Rectangle_58" x="415.8" y="346.4" class="box_2" width="113.5" height="11.4"/>
		<rect id="Rectangle_59" x="291.7" y="420.3" class="l_box_1" width="47.5" height="11.4"/>
		<rect id="Rectangle_60" x="487.1" y="420.3" class="l_box_3" width="16.7" height="11.4"/>
		<rect id="Rectangle_61" x="520.5" y="420.3" class="l_box_4" width="16.7" height="11.4"/>
		<rect id="Rectangle_62" x="355.9" y="420.3" class="l_box_2" width="113.5" height="11.4"/>
		<rect id="Rectangle_63" x="487.9" y="371.9" class="st5" width="47.5" height="11.4"/>
		<rect id="Rectangle_64" x="552.2" y="371.9" class="st5" width="47.5" height="11.4"/>
		<rect id="Rectangle_66" x="291.7" y="371.9" class="st5" width="16.7" height="11.4"/>
		<rect id="Rectangle_67" x="325.1" y="371.9" class="st5" width="16.7" height="11.4"/>
		<rect id="Rectangle_68" x="358.6" y="371.9" class="st5" width="113.5" height="11.4"/>
		<rect id="Rectangle_69" x="389.4" y="396.5" class="st5" width="47.5" height="11.4"/>
		<rect id="Rectangle_70" x="325.1" y="396.5" class="st5" width="47.5" height="11.4"/>
		<rect id="Rectangle_71" x="291.7" y="396.5" class="st5" width="16.7" height="11.4"/>
		<rect id="Rectangle_73" x="583" y="396.5" class="st5" width="16.7" height="11.4"/>
		<rect id="Rectangle_74" x="452.7" y="396.5" class="st5" width="113.5" height="11.4"/>
	</g>
	<path id="Path_156-3669" class="outline" d="M265.7,827.3l-0.9-0.4c-0.2-0.1-20.8-8-30.4-25.8s-4.9-39.4-4.9-39.6l0.2-1l0.9,0.4
		c0.2,0.1,20.8,8,30.4,25.8s4.9,39.4,4.9,39.6L265.7,827.3z M235.9,800.3c8.1,15.1,24.4,22.8,28.5,24.6c0.8-4.4,3.2-22.3-4.9-37.3
		s-24.4-22.8-28.5-24.6C230.2,767.4,227.8,785.2,235.9,800.3L235.9,800.3z"/>
	<path id="Path_157-3670" class="bg_leaf" d="M241.7,794.9c17.3,10.4,24,31.1,24,31.1s-21.4,3.8-38.7-6.6s-24-31.1-24-31.1
		S224.4,784.4,241.7,794.9z"/>
	<path id="Path_158-3671" class="tree" d="M727.9,806.5l22-30.9l-22,34.3l0,3.5c-1.5,0-3.1-0.1-4.6-0.2c0-0.8,2.3-45.1,2.2-45.9
		c0.1,0,0.2-4.2,0.3-4.4l-22.3-34.3l22.4,31.1l0.1,0.9l1.7-34.4l-19.1-35.4l19.3,29.4c0-0.5,1.6-71.1,1.7-71.6
		c0,0.2-0.1,56.2-0.1,56.5l18.9-22.4L729.2,710l-0.4,30.8l17.6-29.6c-22,43.2-17.1,28.1-17.9,51.3l25.5-41.2l-25.6,47.2L727.9,806.5
		z"/>
	<path id="Path_188-3672" class="tree" d="M957.6,808.7l15.1-21.3L957.6,811l0,2.4c-1.1,0-2.1-0.1-3.2-0.1c0-0.6,1.6-31,1.5-31.6
		c0.1,0,0.1-2.9,0.2-3l-15.4-23.6l15.4,21.4l0,0.6l1.2-23.7l-13.2-24.4l13.3,20.2c0-0.3,1.1-49,1.1-49.3c0,0.2-0.1,38.7-0.1,38.9
		l13-15.4l-13,18.7l-0.3,21.2l12.1-20.4c-15.1,29.7-11.8,19.3-12.3,35.3l17.6-28.4L958,782.5L957.6,808.7z"/>
	<ellipse id="Ellipse_14" class="st1" cx="719.3" cy="224.2" rx="2.2" ry="2.2"/>
	<ellipse id="Ellipse_15" class="st1" cx="727.3" cy="224.2" rx="2.2" ry="2.2"/>
	<ellipse id="Ellipse_16" class="st1" cx="735.3" cy="224.2" rx="2.2" ry="2.2"/>
	<rect id="Rectangle_24" x="940.7" y="218.4" class="st1" width="22.5" height="2.9"/>
	<rect id="Rectangle_25" x="940.7" y="222.8" class="st1" width="22.5" height="2.9"/>
	<rect id="Rectangle_26" x="940.7" y="227.1" class="st1" width="22.5" height="2.9"/>
</g>
</svg>
