
<!-- Generator: Adobe Illustrator 24.0.0, SVG Export Plug-In . SVG Version: 6.00 Build 0)  -->
<svg version="1.1" id="Layer_1" xmlns="http://www.w3.org/2000/svg" xmlns:xlink="http://www.w3.org/1999/xlink" x="0px" y="0px"
	 viewBox="0 0 860 656.4" style="enable-background:new 0 0 860 656.4;" xml:space="preserve">
<style type="text/css">
    .plant_leaf{fill:#E6E6E6;}
    .plant_leaf_2{fill:#E6E6E6;}
	.st0{fill:#E6E6E6;}
	.st1{fill:#E86124;}
	.st2{fill:#3F3D56;}
	.st3{fill:#FFFFFF;}
	.st4{fill:#2F2E41;}
	.st5{fill:#FFB8B8;}

    .plant_leaf {
        animation: planMoveleaf 0.8s ease-in-out infinite alternate;
    }    
    @keyframes planMoveleaf {
        0% {
            transform: translateX(0px);
        }
        100% {
            transform: translateX(-7px);
        }
    }

    .plant_leaf_2 {
        animation: plantMove 0.8s ease-in-out infinite alternate;
    }    
    @keyframes plantMove {
        0% {
            transform: translateY(0px);
        }
        100% {
            transform: translateY(5px);
        }
    }
</style>
<ellipse class="st0" cx="676.7" cy="642.4" rx="183.3" ry="14"/>
<g transform="translate(-170 -121.80191)">
	<path class="st1" d="M177.5,123.8c-2.5,0-4.5,2-4.5,4.5v94c0,2.5,2,4.5,4.5,4.5h365c2.5,0,4.5-2,4.5-4.5v-94c0-2.5-2-4.5-4.5-4.5
		H177.5z"/>
	<path class="st0" d="M542.5,482.8h-365c-4.1,0-7.5-3.4-7.5-7.5v-346c0-4.1,3.4-7.5,7.5-7.5h365c4.1,0,7.5,3.4,7.5,7.5v346
		C550,479.4,546.6,482.8,542.5,482.8z M177.5,124.8c-2.5,0-4.5,2-4.5,4.5v346c0,2.5,2,4.5,4.5,4.5h365c2.5,0,4.5-2,4.5-4.5v-346
		c0-2.5-2-4.5-4.5-4.5H177.5z"/>
	<path class="st0" d="M442.8,266.1H333.3v2h109.5c11.2,0,20.3,9.1,20.3,20.3c0,11.2-9.1,20.3-20.3,20.3H277.2
		c-11.2,0-20.3-9.1-20.3-20.3c0-11.2,9.1-20.3,20.3-20.3h6.2v-2h-6.2c-12.3,0-22.3,10-22.3,22.3c0,12.3,10,22.3,22.3,22.3h165.7
		c12.3,0,22.3-10,22.3-22.3C465.2,276.1,455.2,266.1,442.8,266.1z"/>
	<path class="st0" d="M442.8,335.1H333.3v2h109.5c11.2,0,20.3,9.1,20.3,20.3c0,11.2-9.1,20.3-20.3,20.3H277.2
		c-11.2,0-20.3-9.1-20.3-20.3c0-11.2,9.1-20.3,20.3-20.3h6.2v-2h-6.2c-12.3,0-22.3,10-22.3,22.3c0,12.3,10,22.3,22.3,22.3h165.7
		c12.3,0,22.3-10,22.3-22.3C465.2,345.1,455.2,335.1,442.8,335.1z"/>
	<path class="st0" d="M442.8,404.1H333.3v2h109.5c11.2,0,20.3,9.1,20.3,20.3c0,11.2-9.1,20.3-20.3,20.3H277.2
		c-11.2,0-20.3-9.1-20.3-20.3c0-11.2,9.1-20.3,20.3-20.3h6.2v-2h-6.2c-12.3,0-22.3,10-22.3,22.3c0,12.3,10,22.3,22.3,22.3h165.7
		c12.3,0,22.3-10,22.3-22.3C465.2,414.1,455.2,404.1,442.8,404.1z"/>
	<path class="st2" d="M295.7,260.8c-3.3,0.1-5.9,2.8-5.8,6c0.1,3.2,2.6,5.8,5.8,5.8h26.1c3.3,0.1,6-2.6,6-5.8c0.1-3.3-2.6-6-5.8-6
		l0,0c-0.1,0-0.1,0-0.2,0H295.7z"/>
	<path class="st2" d="M295.7,330.8c-3.3,0.1-5.9,2.8-5.8,6c0.1,3.2,2.6,5.8,5.8,5.8h26.1c3.3,0.1,6-2.6,6-5.8c0.1-3.3-2.6-6-5.8-6
		l0,0c-0.1,0-0.1,0-0.2,0H295.7z"/>
	<path class="st2" d="M295.7,398.8c-3.3,0.1-5.9,2.8-5.8,6c0.1,3.2,2.6,5.8,5.8,5.8h26.1c3.3,0.1,6-2.6,6-5.8c0.1-3.3-2.6-6-5.8-6
		c-0.1,0-0.1,0-0.2,0H295.7z"/>
	<path class="st0" d="M285.4,282.5c-3.3,0.1-5.9,2.8-5.8,6c0.1,3.2,2.6,5.8,5.8,5.8h149.1c3.3,0.1,6-2.6,6-5.8c0.1-3.3-2.6-6-5.8-6
		c-0.1,0-0.1,0-0.2,0H285.4z"/>
	<path class="st0" d="M285.4,351.5c-3.3,0.1-5.9,2.8-5.8,6c0.1,3.2,2.6,5.8,5.8,5.8h149.1c3.3,0.1,6-2.6,6-5.8c0.1-3.3-2.6-6-5.8-6
		c-0.1,0-0.1,0-0.2,0H285.4z"/>
	<path class="st0" d="M285.4,420.5c-3.3,0.1-5.9,2.8-5.8,6c0.1,3.2,2.6,5.8,5.8,5.8h149.1c3.3,0.1,6-2.6,6-5.8c0.1-3.3-2.6-6-5.8-6
		c-0.1,0-0.1,0-0.2,0H285.4z"/>
</g>
<circle class="st3" cx="54.9" cy="53.5" r="24"/>
<path class="st3" d="M98,34.6c-3.3,0.1-5.9,2.8-5.8,6c0.1,3.2,2.6,5.8,5.8,5.8H247c3.3,0,6-2.6,6-5.9c0-3.3-2.6-6-5.8-6
	c-0.1,0-0.1,0-0.2,0H98z"/>
<path class="st3" d="M98,60.6c-3.3,0.1-5.9,2.8-5.8,6c0.1,3.2,2.6,5.8,5.8,5.8H343c3.3,0,6-2.6,6-5.9c0-3.3-2.6-6-5.8-6
	c-0.1,0-0.1,0-0.2,0H98z"/>
<circle class="st4" cx="719.5" cy="189.1" r="28.1"/>
<circle class="st4" cx="672.7" cy="222.5" r="33.4"/>
<path class="st5" d="M634.2,510l16.4,29c0,0,21.4-21.4,10.1-27.1l-17.6-5.7L634.2,510z"/>
<path class="st5" d="M663.2,587.6l-5,21.4l15.1,5l5-24.6L663.2,587.6z"/>
<path class="st4" d="M631.6,371.3l-3.2,33.2c0,0-58.5,53.9-38.3,74.1s45.4,36.6,45.4,36.6l11.3-8.2L621,471.6l52.3-37.2l-12,155.7
	l18.3,5l41-157.6c0,0,12.6-50.4-18.3-75.6L631.6,371.3z"/>
<path class="st4" d="M668.9,608.4c0,0-9.5-12-13.9-1.3c-2.9,7.4-5.2,15-6.9,22.7c0,0-16.4,24.6,8.8,21.4
	c25.2-3.2,17.6-14.5,17.6-14.5c2.7-1.8,4.2-5,3.8-8.2c-0.6-5.7-3.8-18.9-3.8-18.9S671.4,603.9,668.9,608.4L668.9,608.4z"/>
<path class="st4" d="M642.7,526.1c0,0-5.4,5.4,3.5,14.2c0,0,1.3,24.6,12.6,22.1c11.3-2.5,15.1-33.4,13.9-36.6
	c-1.3-3.2,1.9-26.5-5.7-25.8s-17,8.8-17,8.8s16.4,15.1,0.6,25.2C650.6,534,646.5,532.4,642.7,526.1z"/>
<path class="st5" d="M689.7,282.5l-47.9,1.3c10.6-15,12.5-32.7,8.2-52.3l31.5,6.3C675.4,253.8,675.3,267.6,689.7,282.5L689.7,282.5z
	"/>
<path class="st1" d="M704.8,363.8l-74.4,20.8l-14.3-98.3c0.6-9.1,7.6-16.5,16.7-17.6l17.1-2l30.9,3.2l14.6,4.1
	c8.4,2.4,14.1,10.3,13.7,19L704.8,363.8z"/>
<path class="st1" d="M633.6,365.7l-12,13.9l-29-30.9l10.8-53.4c2.6-13,12.9-23.2,25.9-25.7l8-1.5l-17.6,71.8L633.6,365.7z"/>
<path class="st5" d="M633,385.2l-8.9-11.9l7.6-7.6l12.3,3.2c5.6,1.5,8.9,7.1,7.4,12.7c-0.4,1.6-1.2,3.1-2.4,4.4
	c-3.9,4.2-10.5,4.5-14.7,0.7C633.8,386.2,633.4,385.7,633,385.2L633,385.2z"/>
<path class="st1" d="M691.5,369.5l12,13.9l29-30.9L721.7,299c-2.6-13-12.9-23.2-25.9-25.7l-8-1.5l17.6,71.8L691.5,369.5z"/>
<path class="st5" d="M692.1,389l8.9-11.9l-7.6-7.6l-12.3,3.2c-5.6,1.5-8.9,7.1-7.4,12.7c0.4,1.6,1.2,3.1,2.4,4.4
	c3.9,4.2,10.5,4.5,14.7,0.7C691.3,390,691.7,389.5,692.1,389L692.1,389z"/>
<circle class="st5" cx="668.1" cy="225.2" r="21.9"/>
<path class="st4" d="M644.6,223.1h37.4l11.4-15.4c-11.2-9.8-25.2-11.5-40.8-8.7L644.6,223.1z"/>
<path class="plant_leaf" d="M827.5,575.4c-0.6,22.5-4.4,44.7-11.2,66.1c-0.2,0.5-0.3,1-0.5,1.5h-41.7c0-0.4,0.1-0.9,0.1-1.5
	c2.8-32,18.8-226.5-0.4-259.8C775.6,384.4,830.7,473.8,827.5,575.4z"/>
<path class="plant_leaf_2" d="M824.4,641.5c-0.3,0.5-0.7,1-1.1,1.5H792c0.2-0.4,0.5-0.9,0.8-1.5c5.2-9.3,20.5-37.2,34.7-66.1
	c15.3-31.1,29.3-63.3,28.1-75C855.9,503,866.5,583.3,824.4,641.5z"/>
<path class="plant_leaf" d="M532,608.7c0.3,11.4,2.2,22.7,5.7,33.6c0.1,0.3,0.2,0.5,0.2,0.8h21.2c0-0.2,0-0.5-0.1-0.8
	c-1.4-16.2-9.5-115,0.2-131.9C558.3,511.7,530.3,557.1,532,608.7L532,608.7z"/>
<path class="plant_leaf_2" d="M533.6,642.2c0.2,0.3,0.4,0.5,0.5,0.8H550c-0.1-0.2-0.3-0.5-0.4-0.8c-2.6-4.7-10.4-18.9-17.6-33.6
	c-7.7-15.8-14.9-32.1-14.3-38.1C517.5,572,512.2,612.7,533.6,642.2L533.6,642.2z"/>
</svg>
