<svg xmlns="http://www.w3.org/2000/svg" xmlns:xlink="http://www.w3.org/1999/xlink" width="176.233" height="134.126" viewBox="0 0 176.233 134.126">
  <defs>
    <linearGradient id="linear-gradient" y1="0.5" x2="1" y2="0.5" gradientUnits="objectBoundingBox">
      <stop offset="0" stop-color="#f39200"/>
      <stop offset="1" stop-color="#be1622"/>
    </linearGradient>
  </defs>
  <g id="Group_2358" data-name="Group 2358" transform="translate(-693.05 -28.279)">
    <path id="Path_6594" data-name="Path 6594" d="M728.263,156.428s-40.5-25.289-21.477-68.437,51.964-26.2,70.353-32.2c10.943-3.569,19.23-21.052,40.464-21.96,13.039-.558,42.752,11.017,28.445,45.965,23.844.921,30.7,36.79,29.246,49.152-1.8,15.223-16.467,46.506-55,34.888-10.713-5.091-22.126-13.233-33.944-6.216S747.292,168.247,728.263,156.428Z" transform="translate(-6.197 -3.966)" fill="#ffeae2"/>
    <g id="Group_2297" data-name="Group 2297" transform="translate(693.05 61.048)">
      <g id="Group_2296" data-name="Group 2296" transform="translate(0)" opacity="0.482">
        <path id="Path_6595" data-name="Path 6595" d="M717.612,226.385s-12.841-3.539-8.4-8.5,11.451-1.686,12.654-5.225-18.236-11.852-22.836-15.742c-3.648-3.084-9.25-12.495-3.523-14.769s10.069,2.986,13.006.556.338-8.718-.867-10.281-13.579-22.1-6.006-26.455,11.613-1.959,14.667,4.147c2.215,4.428,3.155,20.244,7.094,21.408,2.346.693,4.856-1.74,5.566-4.143s12.028-8.023,14.582-2.291-9.791,61.292-9.791,61.292Z" transform="translate(-693.05 -143.751)" opacity="0.83" fill="url(#linear-gradient)"/>
        <path id="Path_6596" data-name="Path 6596" d="M769.48,255.342s-3.065-25.541-8.774-30.62c10.617,6.239,20.132,28.557,20.132,28.557l-2.7,28.787Z" transform="translate(-741.507 -201.744)" fill="#f39200"/>
        <path id="Path_6597" data-name="Path 6597" d="M773.505,335.609s-10.39-10.792-10.3-14.874-5.738-18.938-8.635-21.025,14.531,10.4,17.135,19.08A48.79,48.79,0,0,1,773.505,335.609Z" transform="translate(-736.879 -255.287)" fill="#e94e1b"/>
      </g>
      <path id="Path_6598" data-name="Path 6598" d="M1184.941,247.766s1.971,2.343,4.5-2.8c1.685-3.422,4.025-13.771,4.353-17.945.762-9.705,6.905-5.687,6.905-5.687s2.486,1.52,5.538-3.513,8.016-6.573,9.686-3.272-3.873,13.6-4.14,13.924-1.469,4.6-.267,5.8-2.671,4.164-2.671,4.164l-9.348,4.426s-3.072,3.2-.534,5.451-1.677,9.5-5.169,12.554c-4.358,3.178-8.853-5.8-8.853-5.8Z" transform="translate(-1045.352 -193.209)" opacity="0.23" fill="url(#linear-gradient)"/>
      <path id="Path_6599" data-name="Path 6599" d="M1184.941,331.318s4.407-4.874,6.143,0,2.537,8,3.739,5.968,5.208-8.134,5.208-8.134,5.208-5.512,6.677-.972-2.4,7.9-2.4,7.9l-4.677,5.742a1.511,1.511,0,0,0,1.2,2.465c2.087-.033,4.374.281,4.545,1.787.534,4.71-3.072,6.544-5.609,6.811a9.7,9.7,0,0,0-3.865,1.1l-10.959-.033Z" transform="translate(-1045.352 -274.557)" opacity="0.318" fill="url(#linear-gradient)"/>
    </g>
    <g id="Group_2304" data-name="Group 2304" transform="translate(765.033 28.279)">
      <g id="Group_2299" data-name="Group 2299" transform="translate(17.891 0)">
        <path id="Path_6600" data-name="Path 6600" d="M1009.75,28.279V75.834h20.045V28.279Zm10.022,9.8a3.2,3.2,0,1,1,3.2-3.2A3.2,3.2,0,0,1,1019.772,38.075Z" transform="translate(-1009.75 -28.279)" fill="#f08258"/>
        <g id="Group_2298" data-name="Group 2298" transform="translate(11.99 16.814)">
          <line id="Line_250" data-name="Line 250" x2="8.055" fill="none" stroke="#e6007e" stroke-miterlimit="10" stroke-width="1"/>
          <line id="Line_251" data-name="Line 251" x2="8.055" transform="translate(0 12.753)" fill="none" stroke="#e6007e" stroke-miterlimit="10" stroke-width="1"/>
          <line id="Line_252" data-name="Line 252" x2="8.055" transform="translate(0 25.507)" fill="none" stroke="#e6007e" stroke-miterlimit="10" stroke-width="1"/>
          <line id="Line_253" data-name="Line 253" x2="4.783" transform="translate(3.272 19.13)" fill="none" stroke="#e6007e" stroke-miterlimit="10" stroke-width="1"/>
          <line id="Line_254" data-name="Line 254" x2="4.783" transform="translate(3.272 6.377)" fill="none" stroke="#e6007e" stroke-miterlimit="10" stroke-width="1"/>
        </g>
      </g>
      <g id="Group_2302" data-name="Group 2302" transform="translate(45.845 4.929)">
        <g id="Group_2300" data-name="Group 2300">
          <path id="Path_6601" data-name="Path 6601" d="M1108.255,56.231H1116l-3.87-10.583Z" transform="translate(-1108.255 -45.648)" fill="#aa6037"/>
          <path id="Path_6602" data-name="Path 6602" d="M1117.617,48.966h2.426l-1.213-3.318Z" transform="translate(-1114.961 -45.648)" fill="#1d1d1b"/>
          <path id="Path_6603" data-name="Path 6603" d="M1115.881,57.339h1.152l1.252,7.266h-3.756Z" transform="translate(-1112.749 -54.021)" fill="#f59e67"/>
        </g>
        <g id="Group_2301" data-name="Group 2301" transform="translate(0 10.583)">
          <rect id="Rectangle_211" data-name="Rectangle 211" width="7.74" height="31.483" fill="#f08258"/>
          <rect id="Rectangle_212" data-name="Rectangle 212" width="1.753" height="31.433" transform="translate(0 0.05)" fill="#e94e1b"/>
          <rect id="Rectangle_213" data-name="Rectangle 213" width="2.203" height="31.433" transform="translate(5.536 0.05)" fill="#f39200"/>
        </g>
      </g>
      <g id="Group_2303" data-name="Group 2303" transform="translate(0 11.771)">
        <path id="Path_6604" data-name="Path 6604" d="M949.2,89.265h6.307v-5.23l2.56-3.934-5.193-10.344-.054,8.583a1.318,1.318,0,0,1-.236,2.561,1.47,1.47,0,0,1-1.562-1.289,1.276,1.276,0,0,1,.871-1.271l.073-8.583-5.266,10.362,2.5,3.9Z" transform="translate(-946.705 -69.757)" fill="#f08258"/>
        <path id="Path_6605" data-name="Path 6605" d="M955.422,138.5h6.307v15.716h-6.344Z" transform="translate(-952.922 -118.993)" fill="#e94e1b"/>
      </g>
    </g>
    <g id="Group_2348" data-name="Group 2348" transform="translate(717.612 75.274)">
      <g id="Group_2305" data-name="Group 2305">
        <path id="Path_6606" data-name="Path 6606" d="M779.64,423.647H905.588s2.254,7.879-7.095,8.547-111.108,0-111.108,0S778.972,432.194,779.64,423.647Z" transform="translate(-779.602 -358.445)" fill="#940000"/>
        <path id="Rectangle_214" data-name="Rectangle 214" d="M0,0H30.181a0,0,0,0,1,0,0V0a3.205,3.205,0,0,1-3.205,3.205H3.205A3.205,3.205,0,0,1,0,0V0A0,0,0,0,1,0,0Z" transform="translate(48.022 65.202)" fill="#be1622"/>
        <path id="Rectangle_215" data-name="Rectangle 215" d="M6,0H96.962a6,6,0,0,1,6,6V65.169a0,0,0,0,1,0,0H0a0,0,0,0,1,0,0V6A6,6,0,0,1,6,0Z" transform="translate(12.065)" fill="#940000"/>
        <path id="Rectangle_216" data-name="Rectangle 216" d="M6,0H61.48a0,0,0,0,1,0,0V95.584a0,0,0,0,1,0,0H6a6,6,0,0,1-6-6V6A6,6,0,0,1,6,0Z" transform="translate(111.338 3.689) rotate(90)" fill="#fff"/>
      </g>
      <g id="Group_2347" data-name="Group 2347" transform="translate(21.013 6.143)">
        <g id="Group_2309" data-name="Group 2309" transform="translate(17.964 6.705)">
          <g id="Group_2306" data-name="Group 2306" transform="translate(6.065 19.47)">
            <rect id="Rectangle_217" data-name="Rectangle 217" width="23.383" height="0.86" transform="translate(3.078 1.173)" fill="url(#linear-gradient)"/>
            <circle id="Ellipse_79" data-name="Ellipse 79" cx="1.603" cy="1.603" r="1.603" fill="#cc3d05"/>
            <circle id="Ellipse_80" data-name="Ellipse 80" cx="1.603" cy="1.603" r="1.603" transform="translate(26.341)" fill="#cc3d05"/>
          </g>
          <g id="Group_2308" data-name="Group 2308">
            <g id="Group_2307" data-name="Group 2307" transform="translate(1.169 1.776)">
              <path id="Path_6607" data-name="Path 6607" d="M940.8,265.141a19.751,19.751,0,0,1-19.729-19.728h.866a18.862,18.862,0,0,0,37.725,0h.866A19.751,19.751,0,0,1,940.8,265.141Z" transform="translate(-921.072 -245.413)" fill="url(#linear-gradient)"/>
              <path id="Path_6608" data-name="Path 6608" d="M922.6,245.413a19.3,19.3,0,1,0,38.591,0" transform="translate(-922.165 -245.413)" fill="#c6c6c6"/>
            </g>
            <rect id="Rectangle_218" data-name="Rectangle 218" width="3.205" height="3.205" transform="translate(19.161 19.47)" fill="#cc3d05"/>
            <rect id="Rectangle_219" data-name="Rectangle 219" width="3.205" height="3.205" transform="translate(38.591)" fill="#cc3d05"/>
            <rect id="Rectangle_220" data-name="Rectangle 220" width="3.205" height="3.205" fill="#cc3d05"/>
          </g>
          <path id="Path_6609" data-name="Path 6609" d="M966.3,338.225H975v-7.211l3.531-5.425-7.161-14.264-.075,11.835a1.817,1.817,0,0,1-.326,3.531,2.026,2.026,0,0,1-2.153-1.778,1.759,1.759,0,0,1,1.2-1.753l.1-11.835-7.261,14.289L966.3,331Z" transform="translate(-949.827 -290.845)" fill="url(#linear-gradient)"/>
        </g>
        <g id="Group_2321" data-name="Group 2321" transform="translate(0 6.705)">
          <g id="Group_2310" data-name="Group 2310">
            <rect id="Rectangle_221" data-name="Rectangle 221" width="11.218" height="47.113" fill="#f08258"/>
            <rect id="Rectangle_222" data-name="Rectangle 222" width="11.218" height="2.577" fill="#c72c1b"/>
          </g>
          <g id="Group_2320" data-name="Group 2320" transform="translate(1.603 5.331)">
            <g id="Group_2311" data-name="Group 2311" transform="translate(0 31.099)">
              <rect id="Rectangle_223" data-name="Rectangle 223" width="5.075" height="5.075" transform="translate(2.871 2.871)" fill="#fff"/>
              <rect id="Rectangle_224" data-name="Rectangle 224" width="5.075" height="5.075" fill="#c6c6c6"/>
            </g>
            <g id="Group_2319" data-name="Group 2319" transform="translate(0.05)">
              <g id="Group_2312" data-name="Group 2312">
                <rect id="Rectangle_225" data-name="Rectangle 225" width="3.272" height="3.272" fill="#f9ebff"/>
                <rect id="Rectangle_226" data-name="Rectangle 226" width="3.272" height="3.272" transform="translate(0 4.374)" fill="#f9ebff"/>
                <rect id="Rectangle_227" data-name="Rectangle 227" width="3.272" height="3.272" transform="translate(0 8.747)" fill="#f9ebff"/>
                <rect id="Rectangle_228" data-name="Rectangle 228" width="3.272" height="3.272" transform="translate(0 13.121)" fill="#f9ebff"/>
                <rect id="Rectangle_229" data-name="Rectangle 229" width="3.272" height="3.272" transform="translate(0 17.494)" fill="#f9ebff"/>
                <rect id="Rectangle_230" data-name="Rectangle 230" width="3.272" height="3.272" transform="translate(0.016 21.905)" fill="#f9ebff"/>
                <rect id="Rectangle_231" data-name="Rectangle 231" width="3.272" height="3.272" transform="translate(0 26.241)" fill="#f9ebff"/>
                <rect id="Rectangle_232" data-name="Rectangle 232" width="3.272" height="3.272" transform="translate(4.574)" fill="#f9ebff"/>
                <rect id="Rectangle_233" data-name="Rectangle 233" width="3.272" height="3.272" transform="translate(4.574 4.374)" fill="#f9ebff"/>
                <rect id="Rectangle_234" data-name="Rectangle 234" width="3.272" height="3.272" transform="translate(4.574 8.747)" fill="#f9ebff"/>
                <rect id="Rectangle_235" data-name="Rectangle 235" width="3.272" height="3.272" transform="translate(4.574 13.121)" fill="#f9ebff"/>
                <rect id="Rectangle_236" data-name="Rectangle 236" width="3.272" height="3.272" transform="translate(4.574 17.494)" fill="#f9ebff"/>
                <rect id="Rectangle_237" data-name="Rectangle 237" width="3.272" height="3.272" transform="translate(4.574 21.868)" fill="#f9ebff"/>
                <rect id="Rectangle_238" data-name="Rectangle 238" width="3.272" height="3.272" transform="translate(4.574 26.241)" fill="#f9ebff"/>
              </g>
              <g id="Group_2318" data-name="Group 2318" transform="translate(0.159 0.225)">
                <path id="Path_6610" data-name="Path 6610" d="M862.883,259v2.821l.785-.6h1.085Z" transform="translate(-862.073 -258.926)"/>
                <path id="Path_6611" data-name="Path 6611" d="M878.941,258.736v2.821l.785-.6h1.085Z" transform="translate(-873.575 -258.736)" fill="#c6c6c6"/>
                <path id="Path_6612" data-name="Path 6612" d="M862.117,274l-.518.593h-.851l-.718,2.12,1.141-1.095a.253.253,0,1,1,.139.138l-1.071,1.124,2.028-.7.134-.826.568-.559Z" transform="translate(-860.03 -269.669)" fill="#512918"/>
                <path id="Rectangle_239" data-name="Rectangle 239" d="M0,0H2.548a.383.383,0,0,1,.383.383v0a.383.383,0,0,1-.383.383H0a0,0,0,0,1,0,0V0A0,0,0,0,1,0,0Z" transform="translate(4.984 6.327) rotate(-45)" fill="#f9b233"/>
                <line id="Line_255" data-name="Line 255" y1="2.504" x2="2.491" transform="translate(4.791 8.893)" fill="none" stroke="#f39200" stroke-miterlimit="10" stroke-width="1"/>
                <g id="Group_2313" data-name="Group 2313" transform="translate(0.377 8.851)">
                  <path id="Path_6613" data-name="Path 6613" d="M863.5,289.927l.028.606h-.073a.724.724,0,0,0-.057-.229.385.385,0,0,0-.157-.163.551.551,0,0,0-.259-.053h-.364v1.977a.53.53,0,0,0,.052.3.287.287,0,0,0,.223.08h.09v.071h-1.1v-.071h.091a.262.262,0,0,0,.233-.1.582.582,0,0,0,.042-.278v-1.977h-.311a.864.864,0,0,0-.258.027.353.353,0,0,0-.17.139.562.562,0,0,0-.084.278h-.072l.03-.606Z" transform="translate(-861.359 -289.927)"/>
                </g>
                <ellipse id="Ellipse_81" data-name="Ellipse 81" cx="1.266" cy="1.067" rx="1.266" ry="1.067" transform="translate(0.197 13.463)" fill="#f99433"/>
                <rect id="Rectangle_240" data-name="Rectangle 240" width="2.391" height="2.04" transform="translate(4.841 13.511)" fill="#f99433"/>
                <path id="Path_6614" data-name="Path 6614" d="M862.49,321.214h-1.357l-.678,1.175.678,1.175h1.357l.678-1.175Z" transform="translate(-860.335 -303.484)" fill="#f99433"/>
                <path id="Path_6615" data-name="Path 6615" d="M878.624,321.682l.928.142-.677.65.152.926-.828-.443-.834.431.166-.924-.667-.66.93-.128.422-.839Z" transform="translate(-872.087 -303.214)" fill="#f99433"/>
                <rect id="Rectangle_241" data-name="Rectangle 241" width="2.404" height="2.07" transform="translate(4.911 26.617)" fill="url(#linear-gradient)"/>
                <g id="Group_2314" data-name="Group 2314" transform="translate(5.35 22.243)">
                  <circle id="Ellipse_82" data-name="Ellipse 82" cx="0.701" cy="0.701" r="0.701" fill="#f9d18d"/>
                  <circle id="Ellipse_83" data-name="Ellipse 83" cx="0.701" cy="0.701" r="0.701" transform="translate(0.701 0.785)" fill="#f39200"/>
                </g>
                <g id="Group_2315" data-name="Group 2315" transform="translate(0.082 26.288)">
                  <path id="Path_6616" data-name="Path 6616" d="M866.034,357.335l-1.273-1.243.226-.2,1.335,1.151Z" transform="translate(-863.501 -354.608)" fill="#f9b233"/>
                  <path id="Path_6617" data-name="Path 6617" d="M861.222,351.372a.9.9,0,1,0,.9.9A.9.9,0,0,0,861.222,351.372Zm0,1.519a.618.618,0,1,1,.618-.618A.618.618,0,0,1,861.221,352.891Z" transform="translate(-860.32 -351.372)" fill="#f9d18d"/>
                </g>
                <g id="Group_2316" data-name="Group 2316" transform="translate(0.178 21.966)">
                  <path id="Path_6618" data-name="Path 6618" d="M862.019,338.329l.576.6a.2.2,0,0,0-.142.083c-.035.044-1.461,1.352-1.461,1.352s-.334.146-.334-.108a.535.535,0,0,1,.125-.392c.117-.167,1.194-1.436,1.194-1.436A.132.132,0,0,0,862.019,338.329Z" transform="translate(-860.659 -337.709)" fill="#575756"/>
                  <path id="Path_6619" data-name="Path 6619" d="M865.867,336.584l.354-.351s.282-.188.423-.022a.288.288,0,0,1-.044.41c-.06.056-.227.246-.323.347a.134.134,0,0,0-.022.149.2.2,0,0,1-.041.213c-.094.091-.155.081-.2.034s-.576-.6-.576-.6a.162.162,0,0,1,.066-.173.256.256,0,0,1,.218,0A.2.2,0,0,0,865.867,336.584Z" transform="translate(-864.081 -336.143)" fill="#c6c6c6"/>
                </g>
                <g id="Group_2317" data-name="Group 2317" transform="translate(4.666 4.575)">
                  <path id="Path_6620" data-name="Path 6620" d="M876.789,281.033l-.318.884.86-.342Z" transform="translate(-876.471 -279.28)" fill="#fff"/>
                  <path id="Path_6621" data-name="Path 6621" d="M876.609,282.8l.235.234-.373.148Z" transform="translate(-876.471 -280.546)" fill="#f9b233"/>
                  <path id="Path_6622" data-name="Path 6622" d="M883.389,274.857l.546.537-.142.142-.554-.529Z" transform="translate(-881.318 -274.857)" fill="#fff"/>
                </g>
              </g>
            </g>
          </g>
        </g>
        <g id="Group_2322" data-name="Group 2322">
          <rect id="Rectangle_242" data-name="Rectangle 242" width="85.201" height="5.075" fill="#f97f33"/>
          <rect id="Rectangle_243" data-name="Rectangle 243" width="3.272" height="3.272" transform="translate(75.369 0.973)" fill="#f9ebff"/>
          <rect id="Rectangle_244" data-name="Rectangle 244" width="3.272" height="3.272" transform="translate(79.809 0.973)" fill="#f9ebff"/>
        </g>
        <g id="Group_2328" data-name="Group 2328" transform="translate(66.221 6.705)">
          <g id="Group_2323" data-name="Group 2323">
            <rect id="Rectangle_245" data-name="Rectangle 245" width="18.98" height="15.564" fill="#f08258"/>
            <rect id="Rectangle_246" data-name="Rectangle 246" width="18.98" height="2.107" fill="#c72c1b"/>
          </g>
          <g id="Group_2327" data-name="Group 2327" transform="translate(1.803 4.096)">
            <rect id="Rectangle_247" data-name="Rectangle 247" width="6.26" height="1.452" fill="#f9ebff"/>
            <rect id="Rectangle_248" data-name="Rectangle 248" width="6.26" height="1.452" transform="translate(8.655)" fill="#f9ebff"/>
            <g id="Group_2324" data-name="Group 2324" transform="translate(0 2.644)">
              <rect id="Rectangle_249" data-name="Rectangle 249" width="2.726" height="0.726" fill="#f9ebff"/>
              <rect id="Rectangle_250" data-name="Rectangle 250" width="11.785" height="0.726" transform="translate(3.13)" fill="#f9ebff"/>
            </g>
            <g id="Group_2325" data-name="Group 2325" transform="translate(0 4.347)">
              <rect id="Rectangle_251" data-name="Rectangle 251" width="2.726" height="0.726" fill="#f9ebff"/>
              <rect id="Rectangle_252" data-name="Rectangle 252" width="11.785" height="0.726" transform="translate(3.13)" fill="#f9ebff"/>
            </g>
            <g id="Group_2326" data-name="Group 2326" transform="translate(0 6.049)">
              <rect id="Rectangle_253" data-name="Rectangle 253" width="2.726" height="0.726" fill="#f9ebff"/>
              <rect id="Rectangle_254" data-name="Rectangle 254" width="11.785" height="0.726" transform="translate(3.13)" fill="#f9ebff"/>
            </g>
          </g>
        </g>
        <g id="Group_2339" data-name="Group 2339" transform="translate(66.221 23.838)">
          <g id="Group_2329" data-name="Group 2329">
            <rect id="Rectangle_255" data-name="Rectangle 255" width="18.98" height="10.903" fill="#f08258"/>
            <rect id="Rectangle_256" data-name="Rectangle 256" width="18.98" height="2.051" fill="#c72c1b"/>
          </g>
          <g id="Group_2338" data-name="Group 2338" transform="translate(1.586 3.938)">
            <g id="Group_2333" data-name="Group 2333">
              <g id="Group_2330" data-name="Group 2330" transform="translate(2.943)">
                <rect id="Rectangle_257" data-name="Rectangle 257" width="12.189" height="1.787" fill="#f9ebff"/>
                <rect id="Rectangle_258" data-name="Rectangle 258" width="0.728" height="1.787" fill="#e94e1b"/>
              </g>
              <g id="Group_2332" data-name="Group 2332">
                <rect id="Rectangle_259" data-name="Rectangle 259" width="1.787" height="1.787" fill="#f9ebff"/>
                <g id="Group_2331" data-name="Group 2331" transform="translate(0.138 0.476)">
                  <path id="Path_6623" data-name="Path 6623" d="M1094.585,315.5a.893.893,0,1,0-.756.417A1.153,1.153,0,0,0,1094.585,315.5Z" transform="translate(-1093.074 -315.085)" fill="#683c11"/>
                  <circle id="Ellipse_84" data-name="Ellipse 84" cx="0.3" cy="0.3" r="0.3" transform="translate(0.455 0.117)" fill="#b2b2b2"/>
                </g>
              </g>
            </g>
            <g id="Group_2337" data-name="Group 2337" transform="translate(0 2.612)">
              <g id="Group_2334" data-name="Group 2334" transform="translate(2.943)">
                <rect id="Rectangle_260" data-name="Rectangle 260" width="12.189" height="1.787" fill="#f9ebff"/>
                <rect id="Rectangle_261" data-name="Rectangle 261" width="0.728" height="1.787" fill="#f39200"/>
              </g>
              <g id="Group_2336" data-name="Group 2336">
                <rect id="Rectangle_262" data-name="Rectangle 262" width="1.787" height="1.787" fill="#f9ebff"/>
                <g id="Group_2335" data-name="Group 2335" transform="translate(0.138 0.476)">
                  <path id="Path_6624" data-name="Path 6624" d="M1094.585,324.705a.893.893,0,1,0-.756.417A1.153,1.153,0,0,0,1094.585,324.705Z" transform="translate(-1093.074 -324.288)" fill="#683c11"/>
                  <circle id="Ellipse_85" data-name="Ellipse 85" cx="0.3" cy="0.3" r="0.3" transform="translate(0.455 0.117)" fill="#b2b2b2"/>
                </g>
              </g>
            </g>
          </g>
        </g>
        <g id="Group_2346" data-name="Group 2346" transform="translate(66.221 36.391)">
          <g id="Group_2340" data-name="Group 2340">
            <rect id="Rectangle_263" data-name="Rectangle 263" width="18.98" height="17.377" fill="#f08258"/>
            <rect id="Rectangle_264" data-name="Rectangle 264" width="18.98" height="1.812" fill="#c72c1b"/>
          </g>
          <g id="Group_2345" data-name="Group 2345" transform="translate(1.586 3.556)">
            <g id="Group_2341" data-name="Group 2341">
              <rect id="Rectangle_265" data-name="Rectangle 265" width="3.412" height="3.412" transform="translate(-1 -1)" fill="#e6332a"/>
              <rect id="Rectangle_266" data-name="Rectangle 266" width="2.412" height="2.412" transform="translate(1.252 1.252)" fill="none" stroke="#e6007e" stroke-miterlimit="10" stroke-width="1"/>
            </g>
            <g id="Group_2344" data-name="Group 2344" transform="translate(0 4.557)">
              <g id="Group_2342" data-name="Group 2342">
                <rect id="Rectangle_267" data-name="Rectangle 267" width="1.828" height="1.828" fill="#b2adaf"/>
                <rect id="Rectangle_268" data-name="Rectangle 268" width="1.828" height="1.828" transform="translate(2.458)" fill="#a48a7b"/>
                <rect id="Rectangle_269" data-name="Rectangle 269" width="1.828" height="1.828" transform="translate(4.916)" fill="#634e42"/>
                <rect id="Rectangle_270" data-name="Rectangle 270" width="1.828" height="1.828" transform="translate(7.374)" fill="#ca9e67"/>
                <rect id="Rectangle_271" data-name="Rectangle 271" width="1.828" height="1.828" transform="translate(9.832)" fill="#ca9e67"/>
                <rect id="Rectangle_272" data-name="Rectangle 272" width="1.828" height="1.828" transform="translate(12.29)" fill="#936037"/>
              </g>
              <g id="Group_2343" data-name="Group 2343" transform="translate(0 2.529)">
                <rect id="Rectangle_273" data-name="Rectangle 273" width="1.828" height="1.828" fill="#36a9e1"/>
                <rect id="Rectangle_274" data-name="Rectangle 274" width="1.828" height="1.828" transform="translate(2.458)" fill="#1d71b8"/>
                <rect id="Rectangle_275" data-name="Rectangle 275" width="1.828" height="1.828" transform="translate(4.916)" fill="#2d2e83"/>
                <rect id="Rectangle_276" data-name="Rectangle 276" width="1.828" height="1.828" transform="translate(7.374)" fill="#29235c"/>
                <rect id="Rectangle_277" data-name="Rectangle 277" width="1.828" height="1.828" transform="translate(9.832)" fill="#662483"/>
                <rect id="Rectangle_278" data-name="Rectangle 278" width="1.828" height="1.828" transform="translate(12.29)" fill="#951b81"/>
              </g>
            </g>
          </g>
        </g>
      </g>
    </g>
    <g id="Group_2357" data-name="Group 2357" transform="translate(736.24 43.782)">
      <g id="Group_2349" data-name="Group 2349" transform="translate(0 13.802)">
        <path id="Path_6625" data-name="Path 6625" d="M849.1,134.894q.207-.464.434-.918c.31-.621.674-1.693,1.3-2.061a2.177,2.177,0,0,1,3.325,1.055,2.968,2.968,0,0,1-.261,2.023,10.038,10.038,0,0,1-1.151,1.732,16.316,16.316,0,0,0-3.568,8.972c-.137,1.9,0,1.65,0,1.65l-2.09.011a42.032,42.032,0,0,1,.152-6.079,24.293,24.293,0,0,1,1.273-4.955Q848.787,135.6,849.1,134.894Z" transform="translate(-846.543 -131.545)" fill="#ef9e67"/>
        <path id="Path_6626" data-name="Path 6626" d="M847.372,187.274l-.15,1.417a5.523,5.523,0,0,1,.15,1.778c-.125.651-.226.776-.451,0-.05.876-.35,2.1-.751,2.128s-1.052-.6-.9-1.527a7.827,7.827,0,0,1,.626-2.379c.2-.15.125-1.417.125-1.417Z" transform="translate(-845.246 -171.459)" fill="#ccb3b8"/>
      </g>
      <g id="Group_2351" data-name="Group 2351" transform="translate(10.151 17.926)">
        <path id="Path_6627" data-name="Path 6627" d="M881.016,156.5a3.856,3.856,0,0,0,3.217,2.713,9.683,9.683,0,0,1,1.4,0l-.25,1.753-3.282.166Z" transform="translate(-881.016 -153.544)" fill="#ef9e67"/>
        <path id="Path_6628" data-name="Path 6628" d="M896.743,165.868h2.1a3.094,3.094,0,0,1,1.277-.275,1.487,1.487,0,0,1,.776.388l.626.839s-.676.833-1.377.817a3.568,3.568,0,0,1-1.527-.341c-.551,0-2.1-.049-2.1-.049Z" transform="translate(-892.124 -160.047)" fill="#ccb3b8"/>
        <g id="Group_2350" data-name="Group 2350" transform="translate(6.047 0)">
          <rect id="Rectangle_279" data-name="Rectangle 279" width="6.953" height="0.838" rx="0.419" transform="matrix(-0.303, 0.953, -0.953, -0.303, 8.346, 0.254)" fill="#fff"/>
          <path id="Path_6629" data-name="Path 6629" d="M910.271,146.477h0a.418.418,0,0,0-.5.217.379.379,0,0,1,.128.412l-1.489,4.689a.378.378,0,0,1-.348.263l-.071.224h-5.244a.419.419,0,0,0,0,.839h5.4a.4.4,0,0,0,.075-.008.418.418,0,0,0,.478-.283L910.543,147A.419.419,0,0,0,910.271,146.477Z" transform="translate(-902.324 -146.35)" fill="#ef6767"/>
        </g>
      </g>
      <g id="Group_2352" data-name="Group 2352" transform="translate(4.801)">
        <path id="Path_6630" data-name="Path 6630" d="M864.666,114.922l1.021-3.656a3.918,3.918,0,0,0,1.578,2.128,15.689,15.689,0,0,0-.251,2.461C867.172,115.873,864.8,115.322,864.666,114.922Z" transform="translate(-863.956 -103.219)" fill="#dab3b8"/>
        <path id="Path_6631" data-name="Path 6631" d="M868.265,103.326s.567,1.861,1.911,2.295a1.876,1.876,0,0,0,2.02-.342,7.192,7.192,0,0,0,1.077-4.382,2.177,2.177,0,0,0-3.1-.1l-1.911,1.427Z" transform="translate(-866.534 -95.28)" fill="#ccb3b8"/>
        <path id="Path_6632" data-name="Path 6632" d="M864.5,90.757l-.323.075a1.362,1.362,0,0,1-1.3-.234,2.287,2.287,0,0,1-.451-2.355,3.667,3.667,0,0,1,1.072-1.718,5.419,5.419,0,0,0-.851-.651c-.551-.35-.476-1.5-.476-1.5a4.519,4.519,0,0,1,2.554-1.4c1.627-.276,1.578.5,1.578.5a2.451,2.451,0,0,1-.125,2.179,3.552,3.552,0,0,1,2.854,1.627c.35.476-.07,1.127-.07,1.127s-.731,0-2.008.1a1.615,1.615,0,0,0-1.477,1.3s-.426-.576-.826-.25-.132,1.043-.132,1.043Z" transform="translate(-862.165 -82.91)"/>
      </g>
      <g id="Group_2356" data-name="Group 2356" transform="translate(2.401 11.571)">
        <g id="Group_2353" data-name="Group 2353">
          <path id="Path_6633" data-name="Path 6633" d="M857.26,123.686a4.78,4.78,0,0,0,3.088,1.108c.317,1.352,2.431,12.388,3.222,14.172-2.153.6-7.912.751-9.014.251-.15-1.1,1.051-4.407,1.051-4.407s3.164-5.735,2.454-7.027c-1-1.816-2.754-.234-2.754-.234Z" transform="translate(-854.306 -123.686)" fill="#f08258"/>
          <path id="Path_6634" data-name="Path 6634" d="M881.122,177.986l8.718,1.523s2.1.32,2.25,1.262-2.4,7.251-2.4,7.251l-3.485,4.958-2.529-1.452,3.906-7.262-7.762-6.281Z" transform="translate(-872.412 -162.577)" fill="#683c11"/>
          <path id="Path_6635" data-name="Path 6635" d="M853.706,180.792a4.165,4.165,0,0,0,1.3,2.662c1.1.733,4.958,1.834,10.116,1.584s5.734.507,5.734.507l.426,8.708v1.263l3.113-.265s.993-10.462.442-12.516a2.3,2.3,0,0,0-2.254-1.942l-10.316-2.213-.219-.355-8.094.054Z" transform="translate(-853.706 -162.746)" fill="#683c11"/>
        </g>
        <g id="Group_2354" data-name="Group 2354" transform="translate(18.049 32.307)">
          <path id="Path_6636" data-name="Path 6636" d="M918.824,237.705v2.955l1.2-.15.1-2.98Z" transform="translate(-918.394 -237.53)" fill="#ccb3b8"/>
          <path id="Path_6637" data-name="Path 6637" d="M917.664,245.9a1.6,1.6,0,0,0-.351,1.1l.05.651h5.659v-.7l-3.831-1.477a.508.508,0,0,1-.5.526C918.189,246,917.814,246.022,917.664,245.9Z" transform="translate(-917.309 -243.218)" fill="#312783"/>
        </g>
        <g id="Group_2355" data-name="Group 2355" transform="translate(9.776 29.327)">
          <path id="Path_6638" data-name="Path 6638" d="M894.156,227.03l-1.009,2.229,1.009.751,1.346-2.479Z" transform="translate(-891.73 -227.03)" fill="#ccb3b8"/>
          <path id="Path_6639" data-name="Path 6639" d="M889.486,233.312a1.6,1.6,0,0,0-.963.64l-.369.539,4.413,3.543.439-.547-2.063-3.55a.508.508,0,0,1-.72.1C889.833,233.719,889.524,233.5,889.486,233.312Z" transform="translate(-888.154 -231.529)" fill="#312783"/>
        </g>
      </g>
    </g>
  </g>
</svg>
