<svg id="Group_1210" data-name="Group 1210" xmlns="http://www.w3.org/2000/svg" xmlns:xlink="http://www.w3.org/1999/xlink" width="321.262" height="284.364" viewBox="0 0 321.262 284.364">
  <defs>
    <linearGradient id="linear-gradient" x1="1" y1="0.5" x2="0" y2="0.5" gradientUnits="objectBoundingBox">
      <stop offset="0" stop-color="#ffdcce"/>
      <stop offset="0.669" stop-color="#f18f34"/>
      <stop offset="0.888" stop-color="#e95f32"/>
      <stop offset="1" stop-color="#e3312d"/>
    </linearGradient>
    <linearGradient id="linear-gradient-2" x1="1" y1="0.5" x2="0" y2="0.5" gradientUnits="objectBoundingBox">
      <stop offset="0" stop-color="#ffef26"/>
      <stop offset="0.018" stop-color="#fee921"/>
      <stop offset="0.102" stop-color="#fdd70e"/>
      <stop offset="0.189" stop-color="#fdcb03"/>
      <stop offset="0.281" stop-color="#fdc800"/>
      <stop offset="0.669" stop-color="#f18f34"/>
      <stop offset="0.888" stop-color="#e95f32"/>
      <stop offset="1" stop-color="#e3312d"/>
    </linearGradient>
  </defs>
  <g id="Group_1206" data-name="Group 1206" transform="translate(216.101)">
    <path id="Path_3424" data-name="Path 3424" d="M1309.988,375.154a.933.933,0,0,0,.049-.135v-.029Z" transform="translate(-1212.318 -268.688)" fill="#f6f6f6" stroke="#683c11" stroke-linejoin="round" stroke-width="2.681"/>
    <path id="Path_3425" data-name="Path 3425" d="M1325.6,239.3c-.008,0-.012.008-.021.012s-.021.013-.029.017c-7.837,4.308-14.794,9.25-19.7,14.836,2.792-3.583,34.208,46.174,34.442,46.546-.475-.16-30.711-10.5-40.461-23.7a25.155,25.155,0,0,1-1.449-2.178c.012,17.2.315,35.695,5.655,50.563l21.547-4.869-15.618,16.621c7.06,10.159,18.419,16.924,36.7,17.584a43.825,43.825,0,0,0,27.9-9.042l-31.375-34,37.714,28.463a67.907,67.907,0,0,0,15.151-24.491l.049-.164-.024-.872v-.008c-2.154-6.343-44.355-14.43-46.382-14.815l46.144,6.728-.037-1.322,2.859,1.732a82.217,82.217,0,0,0,2.2-18.967c0-3.1-.074-6.179-.2-9.217q-2.936.276-5.61.532c-27.227,2.58-34.323,3.259-36.174,3.432,4.017-.451,25.572-2.969,36.063-7.269,2.6-1.064,4.512-2.236,5.323-3.509a281.763,281.763,0,0,0-4.132-31.252l-1.6,1.257-.545.426L1375.3,257.02l-10.97,8.591s28.037-37.529,29.249-37.078c11.172-8.018,9.927-19.328,9.927-19.328s-17.635,10.447-32.475,14.931c0,0,.44,10.305,1.333,16.562s-21.535-12.493-21.535-12.493A179.037,179.037,0,0,0,1325.6,239.3Z" transform="translate(-1298.383 -209.205)" fill="url(#linear-gradient)"/>
    <path id="Path_3426" data-name="Path 3426" d="M1333.009,260.74l-.015.009-.022.013c-6.008,3.3-11.34,7.09-15.1,11.372,2.141-2.747,26.223,35.394,26.4,35.679-.364-.122-23.542-8.051-31.016-18.165a19.176,19.176,0,0,1-1.111-1.67c.01,13.183.242,27.362,4.335,38.759l16.517-3.732-11.972,12.741c5.411,7.787,14.119,12.973,28.131,13.478a33.584,33.584,0,0,0,21.385-6.931l-24.05-26.059,28.909,21.818a52.047,52.047,0,0,0,11.614-18.774l.038-.126-.019-.669v-.006c-1.651-4.862-34-11.061-35.554-11.357l35.372,5.157-.028-1.014,2.191,1.328a63.032,63.032,0,0,0,1.689-14.539c0-2.376-.057-4.737-.157-7.065q-2.251.212-4.3.408c-20.87,1.977-26.31,2.5-27.729,2.63,3.08-.345,19.6-2.276,27.644-5.571,1.99-.816,3.459-1.714,4.081-2.69a215.86,215.86,0,0,0-3.167-23.956l-1.23.964-.417.326L1371.1,274.322l-8.409,6.585s21.492-28.768,22.421-28.423c8.563-6.146,7.609-14.816,7.609-14.816s-13.518,8.008-24.893,11.446c0,0,.337,7.9,1.022,12.7s-16.508-9.577-16.508-9.577A137.269,137.269,0,0,0,1333.009,260.74Z" transform="translate(-1296.414 -219.418)" fill="#f39200" opacity="0.5"/>
    <path id="Path_3427" data-name="Path 3427" d="M1309.924,375.076a.943.943,0,0,0,.049-.135.853.853,0,0,0,.041-.168l-.041.139Z" transform="translate(-1212.254 -268.61)" fill="#f6f6f6" stroke="#683c11" stroke-linejoin="round" stroke-width="2.681"/>
    <path id="Path_3428" data-name="Path 3428" d="M1382.362,350.493l.074.012Z" transform="translate(-1331.123 -259.898)" fill="#f6f6f6" stroke="#683c11" stroke-linejoin="round" stroke-width="2.681"/>
    <path id="Path_3429" data-name="Path 3429" d="M1302.837,304.41v.688A2.175,2.175,0,0,0,1302.837,304.41Z" transform="translate(-1200.56 -243.364)" fill="#f6f6f6" stroke="#683c11" stroke-linejoin="round" stroke-width="2.681"/>
    <path id="Path_3430" data-name="Path 3430" d="M1302.88,306.494a2.538,2.538,0,0,0,.4-1.011" transform="translate(-1201 -243.749)" fill="#f6f6f6" stroke="#683c11" stroke-linejoin="round" stroke-width="2.681"/>
    <path id="Path_3431" data-name="Path 3431" d="M1323.329,444.82s14.366-78.038,34.2-109.208c11.633-18.287,53.932-105.415,53.932-105.415" transform="translate(-1322.292 -216.737)" fill="none" stroke="#683c11" stroke-linejoin="round" stroke-width="2.681" opacity="0.18"/>
  </g>
  <g id="Group_1207" data-name="Group 1207" transform="translate(141.158 39.692)">
    <path id="Path_3432" data-name="Path 3432" d="M1573.14,388.843a.631.631,0,0,1-.033-.09v-.019Z" transform="translate(-1569.192 -313.311)" fill="#f6f6f6" stroke="#683c11" stroke-linejoin="round" stroke-width="1.802"/>
    <path id="Path_3433" data-name="Path 3433" d="M1522.029,295.314l.014.008.019.011a49.233,49.233,0,0,1,13.243,9.971c-1.877-2.408-22.99,31.032-23.147,31.283.319-.108,20.64-7.059,27.193-15.926a16.962,16.962,0,0,0,.974-1.464c-.009,11.558-.212,23.989-3.8,33.982l-14.482-3.272,10.5,11.17c-4.744,6.828-12.378,11.374-24.664,11.817a29.452,29.452,0,0,1-18.749-6.077l21.086-22.847L1484.866,363.1a45.624,45.624,0,0,1-10.182-16.46l-.033-.11.017-.587v-.005c1.448-4.263,29.81-9.7,31.172-9.957l-31.012,4.522.025-.889-1.921,1.164a55.251,55.251,0,0,1-1.481-12.747c0-2.083.049-4.153.137-6.195q1.974.186,3.77.358c18.3,1.734,23.068,2.19,24.312,2.306-2.7-.3-17.187-1.995-24.238-4.885a7.819,7.819,0,0,1-3.577-2.358,189.244,189.244,0,0,1,2.776-21l1.079.844.366.287,12.557,9.838,7.372,5.774-25.271-41.889s20.472,20.94,19.872,25.146,14.473-8.4,14.473-8.4A120.377,120.377,0,0,1,1522.029,295.314Z" transform="translate(-1470.735 -271.107)" fill="url(#linear-gradient-2)"/>
    <path id="Path_3434" data-name="Path 3434" d="M1573.167,388.79a.628.628,0,0,1-.033-.09.566.566,0,0,1-.027-.113l.027.094Z" transform="translate(-1569.219 -313.258)" fill="#f6f6f6" stroke="#683c11" stroke-linejoin="round" stroke-width="1.802"/>
    <path id="Path_3435" data-name="Path 3435" d="M1524.49,372.269l-.05.008Z" transform="translate(-1489.336 -307.403)" fill="#f6f6f6" stroke="#683c11" stroke-linejoin="round" stroke-width="1.802"/>
    <path id="Path_3436" data-name="Path 3436" d="M1577.954,341.3v.462A1.468,1.468,0,0,1,1577.954,341.3Z" transform="translate(-1577.102 -296.291)" fill="#f6f6f6" stroke="#683c11" stroke-linejoin="round" stroke-width="1.802"/>
    <path id="Path_3437" data-name="Path 3437" d="M1577.786,342.7a1.718,1.718,0,0,1-.267-.68" transform="translate(-1576.667 -296.55)" fill="#f6f6f6" stroke="#683c11" stroke-linejoin="round" stroke-width="1.802"/>
    <path id="Path_3438" data-name="Path 3438" d="M1507.663,285.541s36.4,60.177,38.317,74.617" transform="translate(-1500.068 -276.286)" fill="none" stroke="#683c11" stroke-linejoin="round" stroke-width="1.802"/>
  </g>
  <g id="Group_1208" data-name="Group 1208" transform="translate(0 117.14)">
    <path id="Path_3439" data-name="Path 3439" d="M1628.892,577.141a.952.952,0,0,1-.154,0l-.029-.011Z" transform="translate(-1519.438 -458.353)" fill="#f6f6f6" stroke="#683c11" stroke-linejoin="round" stroke-width="2.883"/>
    <path id="Path_3440" data-name="Path 3440" d="M1592.069,410.529c.007-.006.013-.009.02-.016s.021-.015.028-.022c7.345-6.208,21.88-15.822,29.38-18.6-4.673,1.423,26.279,56.668,26.563,57.046.023-.539-.469-55.054-17.253-49.621-3.112,1.007-9.919,10.7-10.468,10.009,21.123-10.259,53.607,1.638,66.476,12.728l-13.191,19.756,22.7-9.274c7.479,11,9.893,25.012,3.511,43.617a47.121,47.121,0,0,1-19.827,24.523l-22.038-44.6,14.042,48.828a73.008,73.008,0,0,1-30.425,5.773l-.183-.013-.866-.361h0l0,0c-5.537-4.606,2.605-50.089,3-52.272l-11.027,48.917-1.314-.546s-12.671.966-19.253-1.56c-3.112-1.195-6.175-2.455-9.174-3.757q1.409-2.841,2.7-5.427c13.081-26.339,16.5-33.2,17.384-34.993-2,3.859-12.835,24.528-21.193,33.4-2.069,2.2-3.983,3.668-5.574,3.992a302.869,302.869,0,0,1-29.782-16.19l1.881-1.127.637-.383,21.9-13.117,12.852-7.7s-48.479,13.686-48.494,15.076c-6.575-4.434-22.93-4.249-22.93-4.249s19.184-13.787,29.4-26.956c0,0,7.977,11.288,13.915,14.594s-10.462-24.695-10.462-24.695C1571.343,425.946,1584.664,416.8,1592.069,410.529Z" transform="translate(-1532.136 -391.892)" fill="url(#linear-gradient-2)"/>
    <path id="Path_3441" data-name="Path 3441" d="M1653.182,506.113a58.568,58.568,0,0,0,19.386-3.32l-10.831-37.659,6.99-2.707,16.524,33.436A35.088,35.088,0,0,0,1696.89,479.7c4.116-12,3.823-22.061-.915-30.653l-27.454,11.215,15.933-23.862a67.616,67.616,0,0,0-27.688-10.507c3.946,13.134,4.045,32.17,4.036,32.374l-.44,10.52-6.327-8.417c-.577-.766-10.829-19.266-17.286-32.668q-.45.188-.884.388l-4.062-6.243c.247-.216.913-.972,1.511-1.659-.715-1.683-1.263-3.093-1.673-4.291a129.094,129.094,0,0,0-19.01,12.809l-.159.144-.07.049c-2.02,1.7-4.49,3.612-7.1,5.632a152.775,152.775,0,0,0-13.232,11.009c10.533,18.315,9.34,20.4,8.372,22.086a4.113,4.113,0,0,1-1.352,1.427c9.823-2.907,19.531-5.648,19.63-5.677l2.957,6.848-25.86,15.495c5.923,3.464,11.841,6.617,17.67,9.412a15.25,15.25,0,0,0,1.917-1.77c5.068-5.38,12.189-17.554,17.164-27.152l6.714,3.4c-.307.621-.977,1.967-2.428,4.889-2.063,4.151-5.709,11.486-12.148,24.452l-.48.967c1.314.539,2.614,1.056,3.89,1.545,2.033.78,5.614,1.21,10.085,1.21,1.122,0,2.119-.028,2.88-.058l8.5-37.707,7.373,1.5C1653.708,484.336,1652.137,501.277,1653.182,506.113Zm-86.945-27.97c1.559-.632,3.58-1.289,6.154-2.126,3.726-1.211,8.787-2.771,15.063-4.641h-.079a6.026,6.026,0,0,1-2.972-.837c-4.156-2.315-8.8-7.485-11.905-11.333a162.1,162.1,0,0,1-17.161,16.08A40.812,40.812,0,0,1,1566.237,478.143Z" transform="translate(-1543.266 -400.505)" fill="#f39200" opacity="0.23"/>
    <path id="Path_3442" data-name="Path 3442" d="M1629.048,577.133a.952.952,0,0,1-.154,0,.864.864,0,0,1-.185-.024l.156.013Z" transform="translate(-1519.594 -458.346)" fill="#f6f6f6" stroke="#683c11" stroke-linejoin="round" stroke-width="2.883"/>
    <path id="Path_3443" data-name="Path 3443" d="M1625.672,494.915l-.016.079Z" transform="translate(-1514.26 -428.856)" fill="#f6f6f6" stroke="#683c11" stroke-linejoin="round" stroke-width="2.883"/>
    <path id="Path_3444" data-name="Path 3444" d="M1701.513,557.066l.691.265A2.319,2.319,0,0,1,1701.513,557.066Z" transform="translate(-1639.432 -451.156)" fill="#f6f6f6" stroke="#683c11" stroke-linejoin="round" stroke-width="2.883"/>
    <path id="Path_3445" data-name="Path 3445" d="M1700.859,557.465a2.726,2.726,0,0,1-1.169.009" transform="translate(-1636.918 -451.299)" fill="#f6f6f6" stroke="#683c11" stroke-linejoin="round" stroke-width="2.883"/>
    <path id="Path_3446" data-name="Path 3446" d="M1661.5,539.661c-18.882-36.65-68.091-52-78.073-52.919C1560.22,484.6,1450,501.2,1450,501.2" transform="translate(-1437.456 -425.855)" fill="none" stroke="#683c11" stroke-linejoin="round" stroke-width="2.883" opacity="0.31"/>
  </g>
  <path id="Path_3447" data-name="Path 3447" d="M1495,505c-7.827-63.273-13.636-87.411-22.624-107.074" transform="translate(-1285.31 -276.917)" fill="none" stroke="#683c11" stroke-linejoin="round" stroke-width="2.681"/>
  <g id="Group_1209" data-name="Group 1209" transform="translate(179.493 216.796)">
    <path id="Union_2" data-name="Union 2" d="M-3718.81-1147.76l-4.3-57.185h-3.643v-10.383h73.217v10.383h-3.643l-4.723,57.185Z" transform="translate(3726.754 1215.328)" fill="#dbdbdb"/>
  </g>
</svg>
