<!-- Generator: SVG CODE)  -->
        <svg version="1.1" id="Layer_1" xmlns="http://www.w3.org/2000/svg" xmlns:xlink="http://www.w3.org/1999/xlink" x="0px" y="0px"
            viewBox="0 0 812.4 458" style="enable-background:new 0 0 812.4 458;" xml:space="preserve" class="bg_img">
            <style>
                .content_leaf{fill:#F2F2F2;}
                .content_leaf_sub{fill:#FFFFFF;}
                .content_st1{fill:#ffffff;}
                .content_st2{fill:#E86124;}
                .content_st3{fill:#2F2E41;}
                .content_st4{fill:#3F3D56;}
                .content_st5{fill:#CCCCCC;}

                .content_leaf, .content_leaf_sub {
                    animation: activeMoveleaf 0.8s ease-in-out infinite alternate;
                }
                
                @keyframes activeMoveleaf {
                    0% {
                        transform: translateX(0px);
                    }
                    100% {
                        transform: translateX(10px);
                    }
                }
            </style>
        <path class="content_leaf" d="M735.7,68c-0.1,14.1-1.2,28.3-3.1,42.3c-0.1,0.5-0.1,1-0.2,1.5L599.9,111c-0.4-0.5-0.8-1-1.1-1.5
            c-1.2-1.7-2.4-3.4-3.5-5.1c-5.1-8.5-7.5-18.4-5.1-25.3l0-0.1c0.5-1.5,1.3-2.9,2.3-4.1c5.3-6,16.2-5,26-0.2
            c-8.8-9.6-15.8-21.8-16.3-32.6c-0.5-10.6,5-18.1,11-24.6c0.2-0.2,0.4-0.4,0.6-0.6c0.1-0.1,0.2-0.2,0.3-0.3c4.7-4.9,10.1-9.7,18-9.1
            c8.7,0.6,18.3,7.9,25,16.4c6.7,8.5,11.2,18.1,15.8,27.4c4.5,9.4,9.5,19,16.8,27c-9.9-12.5-17.8-26.7-20.8-40.5s-0.4-27.1,8.4-33.6
            c2.7-1.9,5.8-3.2,9-3.6c0.4-0.1,0.8-0.1,1.2-0.2c8.1-0.9,17.9,1.9,26.2,8.6c9.1,7.4,15.4,18.4,18.6,28.9
            C735.4,48.2,735.8,58.2,735.7,68z"/>
        <path class="content_leaf_sub" d="M649,111.2l-2.5,0c-0.8-0.5-1.6-1-2.4-1.5c-0.5-0.3-1-0.6-1.5-0.9c-8.4-5.1-16.9-10.1-25.4-14.8
            c-8.5-4.7-17-9.2-25.6-13.5c-0.5-0.2-0.7-0.7-0.6-1.2c0,0,0-0.1,0-0.1c0.1-0.2,0.4-0.3,0.8-0.1c1.1,0.5,2.1,1.1,3.2,1.6
            c8.6,4.4,17.2,8.9,25.7,13.7c8.5,4.8,17,9.8,25.4,15c0.2,0.1,0.4,0.2,0.5,0.3C647.4,110.2,648.2,110.7,649,111.2z"/>
        <path class="content_leaf_sub" d="M681.7,111.4l-1.6,0c-0.4-0.5-0.7-1-1.1-1.5c-8.3-11.6-16.6-23.3-24.9-34.9c-13.6-19-27.2-38.1-40.7-57.1
            c-0.1-0.1-0.1-0.2-0.2-0.3c-0.1-0.4,0.2-0.7,0.6-0.6c0.3,0,0.6,0.2,0.8,0.5c7.6,10.7,15.2,21.4,22.8,32c13.5,19,27,37.9,40.5,56.9
            c0.9,1.2,1.7,2.4,2.6,3.6C681,110.4,681.3,110.9,681.7,111.4z"/>
        <path class="content_leaf_sub" d="M716.6,102.3c-0.1,2.6-0.3,5.2-0.5,7.8c0,0.5-0.1,1-0.1,1.5l-1.6,0c0.1-0.5,0.1-1,0.1-1.5
            c0.3-3.7,0.6-7.5,0.6-11.3c0-10.7-1-21.4-3.1-31.9c-2.2-11.3-5.5-22.4-9.6-33.1C698,22.5,692.7,11.5,686.6,1
            c-0.1-0.2-0.2-0.4-0.1-0.6c0.1-0.5,0.7-0.6,1.2-0.2c0.1,0.1,0.2,0.2,0.2,0.3c0.8,1.3,1.5,2.6,2.2,3.9C695.9,15,701,26,705.1,37.4
            c4,10.8,7,21.9,9,33.2C716,81,716.8,91.7,716.6,102.3z"/>
        <path class="content_leaf" d="M218.7,202c-0.1,14.1-1.2,28.3-3.1,42.3c-0.1,0.5-0.1,1-0.2,1.5L82.9,245c-0.4-0.5-0.8-1-1.1-1.5
            c-1.2-1.7-2.4-3.4-3.5-5.1c-5.1-8.5-7.5-18.4-5.1-25.3l0-0.1c0.5-1.5,1.3-2.9,2.3-4.1c5.3-6,16.2-5,26-0.2
            c-8.8-9.6-15.8-21.8-16.3-32.6c-0.5-10.6,5-18.1,11-24.6c0.2-0.2,0.4-0.4,0.6-0.6c0.1-0.1,0.2-0.2,0.3-0.3c4.7-4.9,10.1-9.7,18-9.1
            c8.7,0.6,18.3,7.9,25,16.4c6.7,8.5,11.2,18.1,15.8,27.4c4.5,9.4,9.5,19,16.8,27c-9.9-12.5-17.8-26.7-20.8-40.5s-0.4-27.1,8.4-33.6
            c2.7-1.9,5.8-3.2,9-3.6c0.4-0.1,0.8-0.1,1.2-0.2c8.1-0.9,17.9,1.9,26.2,8.6c9.1,7.4,15.4,18.4,18.6,28.9
            C218.4,182.2,218.8,192.2,218.7,202z"/>
        <path class="content_leaf_sub" d="M132,245.2l-2.5,0c-0.8-0.5-1.6-1-2.4-1.5c-0.5-0.3-1-0.6-1.5-0.9c-8.4-5.1-16.9-10.1-25.4-14.8
            c-8.5-4.7-17-9.2-25.6-13.5c-0.5-0.2-0.7-0.7-0.6-1.2c0,0,0-0.1,0-0.1c0.1-0.2,0.4-0.3,0.8-0.1c1.1,0.5,2.1,1.1,3.2,1.6
            c8.6,4.4,17.2,8.9,25.7,13.7c8.5,4.8,17,9.8,25.4,15c0.2,0.1,0.4,0.2,0.5,0.3C130.4,244.2,131.2,244.7,132,245.2z"/>
        <path class="content_leaf_sub" d="M164.7,245.4l-1.6,0c-0.4-0.5-0.7-1-1.1-1.5c-8.3-11.6-16.6-23.3-24.9-34.9c-13.6-19-27.2-38.1-40.7-57.1
            c-0.1-0.1-0.1-0.2-0.2-0.3c-0.1-0.4,0.2-0.7,0.6-0.6c0.3,0,0.6,0.2,0.8,0.5c7.6,10.7,15.2,21.4,22.8,32c13.5,19,27,37.9,40.5,56.9
            c0.9,1.2,1.7,2.4,2.6,3.6C164,244.4,164.3,244.9,164.7,245.4z"/>
        <path class="content_leaf_sub" d="M199.6,236.3c-0.1,2.6-0.3,5.2-0.5,7.8c0,0.5-0.1,1-0.1,1.5l-1.6,0c0.1-0.5,0.1-1,0.1-1.5
            c0.3-3.7,0.6-7.5,0.6-11.3c0-10.7-1-21.4-3.1-31.9c-2.2-11.3-5.5-22.4-9.6-33.1c-4.4-11.3-9.7-22.3-15.8-32.8
            c-0.1-0.2-0.2-0.4-0.1-0.6c0.1-0.5,0.7-0.6,1.2-0.2c0.1,0.1,0.2,0.2,0.2,0.3c0.8,1.3,1.5,2.6,2.2,3.9c5.9,10.5,10.9,21.5,15.1,32.9
            c4,10.8,7,21.9,9,33.2C199,215,199.8,225.7,199.6,236.3z"/>
        <path class="content_st2" d="M284.2,302.1c-2.6,0-4.9-1.4-6.2-3.6l-7.1-12.9c-1.9-3.4-0.6-7.6,2.8-9.5L381.6,217c3.4-1.9,7.6-0.6,9.5,2.8
            l7.1,12.9c1.9,3.4,0.6,7.6-2.8,9.5l-107.9,59.1C286.5,301.8,285.4,302.1,284.2,302.1z"/>
        <path class="content_st2" d="M434.3,233.7c-0.7,0-1.5-0.1-2.1-0.3c-1.8-0.6-3.2-1.8-4.1-3.5l-6.8-13.1c-1.8-3.4-0.4-7.7,3-9.4L533.7,151
            c3.4-1.8,7.7-0.4,9.4,3l6.8,13.1c1.8,3.4,0.4,7.7-3,9.4l-109.3,56.4C436.5,233.4,435.4,233.7,434.3,233.7z"/>
        <path class="content_st3" d="M432.4,236.9c-2.7,0-5.1-1.5-6.3-3.9l-6.6-13.2c-0.7-1.5-0.9-3.2-0.5-4.8c0-0.2,0.1-0.4,0.2-0.5l0,0
            c0.1-0.4,0.3-1,0.4-1.8c0.5-2.3,1.2-5.2,2.6-5.9l48-29.1c3.4-1.8,7.7-0.4,9.4,3.1c0,0,0,0,0,0l12.1,25c1.7,3.5,0.3,7.7-3.1,9.4
            l-53.1,21C434.5,236.6,433.4,236.9,432.4,236.9z"/>
        <circle class="content_st2" cx="410.4" cy="116.6" r="53.5"/>
        <path class="content_st2" d="M402,456.4h-14.8c-3.9,0-7-3.1-7-7v-123c0-3.9,3.1-7,7-7H402c3.9,0,7,3.1,7,7v123
            C409,453.3,405.8,456.4,402,456.4z"/>
        <path class="content_st2" d="M465.6,400.3c-2.3,0-4.4-1.1-5.7-2.9l-71.5-100.1c-2.2-3.1-1.5-7.5,1.6-9.8l12-8.6c3.1-2.2,7.5-1.5,9.8,1.6
            l71.5,100.1c2.2,3.1,1.5,7.5-1.6,9.8l-12,8.6C468.4,399.8,467,400.3,465.6,400.3z"/>
        <path class="content_st2" d="M446.6,456.6c-1.5,0-2.9-0.4-4.2-1.1l-13.2-6.6c-3.5-1.7-5.4-4.9-4.2-7.2l34.1-68.4c1.1-2.2,4.8-2.7,8.3-0.9
            l13.2,6.6c1.5,0.7,2.8,1.9,3.8,3.3c0.8,1.1,1,2.6,0.5,3.9l-34.1,68.4C450,455.9,448.4,456.6,446.6,456.6z"/>
        <path class="content_st3" d="M360.6,265.7c-2.7,0-5.2-1.6-6.3-4l-12.2-24.9c-1.6-3.5-0.2-7.7,3.3-9.3c0,0,0,0,0,0l52.6-19.8
            c1.3-0.6,4,0.6,6.2,1.6c0.7,0.3,1.3,0.6,1.7,0.7c0.2,0.1,0.3,0.1,0.5,0.2l0,0c1.5,0.7,2.7,1.9,3.4,3.4l6.3,13.4
            c1.6,3.5,0.1,7.7-3.4,9.3L363.7,265C362.7,265.5,361.7,265.7,360.6,265.7z"/>
        <path class="content_st3" d="M403.3,136.4l-0.1-2c3.7-0.1,7-0.3,9.5-2.1c1.4-1.1,2.3-2.7,2.4-4.5c0.1-1.1-0.3-2.2-1.2-2.9
            c-1.6-1.4-4.3-0.9-6.2-0.1l-1.7,0.8l3.2-23.2l2,0.3l-2.7,19.7c2.6-0.8,5-0.4,6.7,1c1.3,1.1,2,2.8,1.9,4.5c-0.1,2.4-1.3,4.6-3.2,6.1
            C410.7,136.2,406.6,136.3,403.3,136.4z"/>
        <rect x="421" y="104.4" class="content_st3" width="10.8" height="2"/>
        <rect x="387" y="104.4" class="content_st3" width="10.8" height="2"/>
        <path class="content_st3" d="M496.2,341.5H329.7c-3.6,0-6.5-2.9-6.5-6.5c0-1.2,0.3-2.3,0.9-3.3l83.2-144.2c1.2-2,3.3-3.3,5.6-3.2l0,0
            c2.3,0,4.5,1.2,5.6,3.2l83.2,144.2c1.8,3.1,0.7,7.1-2.4,8.9C498.4,341.2,497.3,341.5,496.2,341.5z"/>
        <path class="content_st4" d="M600.5,458h-381c-0.6,0-1-0.4-1-1s0.4-1,1-1h381c0.6,0,1,0.4,1,1S601,458,600.5,458z"/>
        <path class="content_st3" d="M414.5,62.4c-5.9-23.8-28.9-42.1-53.6-41.6c-12.2,0.3-24,4.6-33.6,12.2c-4.8,3.8-9,8.3-12.3,13.5
            c-3.7,5.8-6,12.3-7.9,18.9c-3.7,13.3-5.4,28.5-14.8,39.4c-7.8,8.9-19.2,14-31,14c-12-0.2-23.2-6-30.3-15.6
            c-7-9.4-10.5-22.3-6.4-33.6c2-5.6,6.3-10.8,12.4-11.7c5.7-0.8,11.3,1.9,14.3,6.9c2.8,4.8,1.9,11.3-1.6,15.6
            c-3.6,4.5-9.7,5.7-15.1,3.9c-2.5-0.9-4.7-2.4-6.4-4.5c-1.2-1.5-3.3,0.6-2.1,2.1c3.9,4.6,9.9,6.9,15.8,6.1c6-0.9,10.9-5.1,12.9-10.8
            c2.1-5.7,1-12.1-3-16.6c-4.1-4.5-10.3-6.5-16.3-5.4c-6.3,1.3-10.9,6.5-13.3,12.3c-2.4,6-3,12.5-1.8,18.8
            c2.2,12.3,9.6,23.2,20.2,29.8c10.7,6.6,24,7.5,35.7,3.2c5.8-2.1,11.2-5.4,15.7-9.6c4.8-4.9,8.5-10.8,10.8-17.2
            c5.3-13.8,6-29.3,13.5-42.3c6.5-11,16.8-19.3,28.9-23.4c12.1-4.2,25.3-3.5,36.9,1.8c11.6,5.4,20.9,14.6,26.3,26.1
            c1.3,2.8,2.3,5.7,3.1,8.7C412,65.1,414.9,64.3,414.5,62.4L414.5,62.4z"/>
        <path class="content_st4" d="M782.6,251h-235c-9.4,0-17-7.6-17-17V128c0-9.4,7.6-17,17-17h235c9.4,0,17,7.6,17,17v106
            C799.6,243.4,792,251,782.6,251z M547.6,113c-8.3,0-15,6.7-15,15v106c0,8.3,6.7,15,15,15h235c8.3,0,15-6.7,15-15V128
            c0-8.3-6.7-15-15-15H547.6z"/>
        <circle id="bbcca127-9e59-4001-a5e0-206590d8bff8" class="content_st5" cx="595" cy="161.1" r="21.7"/>
        <path id="e9da090a-4f8c-43a8-876d-bcf0a4f301e3-2986" class="content_st5" d="M642.2,146.6c-2,0-3.6,1.7-3.6,3.7c0,2,1.6,3.5,3.6,3.6h110.9
            c2,0,3.6-1.6,3.7-3.6c0-2-1.6-3.6-3.6-3.7c0,0-0.1,0-0.1,0H642.2z"/>
        <path id="b50338f9-d267-4996-8bf7-ac3d8f49070f-2987" class="content_st5" d="M642.2,168.3c-2,0-3.6,1.7-3.6,3.7c0,2,1.6,3.5,3.6,3.6h110.9
            c2,0,3.6-1.6,3.7-3.6c0-2-1.6-3.6-3.6-3.7c0,0-0.1,0-0.1,0H642.2z"/>
        <path id="e73ee58f-0bff-4d2a-854f-43aadef532f3-2988" class="content_st5" d="M576.6,193.6c-2,0-3.6,1.7-3.6,3.7c0,2,1.6,3.5,3.6,3.6h176.9
            c2,0,3.7-1.6,3.7-3.6c0-2-1.6-3.7-3.6-3.7c0,0,0,0,0,0c0,0-0.1,0-0.1,0H576.6z"/>
        <path id="a71626ea-3ef2-475c-92dc-ce03b5d98f88-2989" class="content_st5" d="M576.6,215.3c-2,0-3.6,1.7-3.6,3.7c0,2,1.6,3.5,3.6,3.6h176.9
            c2,0,3.7-1.6,3.7-3.6c0-2-1.6-3.7-3.6-3.7c0,0,0,0,0,0c0,0-0.1,0-0.1,0H576.6z"/>
        <path class="content_st2" d="M792.7,224.6c26.3,0.4,26.3,39.6,0,40C766.4,264.1,766.4,225,792.7,224.6z"/>
        <path class="content_st1" d="M792.7,255.5c-0.8,0-1.4-0.6-1.4-1.4v-7.5c0-0.3-0.3-0.6-0.6-0.6h-7.5c-0.8,0-1.4-0.6-1.4-1.4s0.6-1.4,1.4-1.4
            h7.5c0.3,0,0.6-0.3,0.6-0.6v-7.5c0-0.8,0.6-1.4,1.4-1.4c0.8,0,1.4,0.6,1.4,1.4v7.5c0,0.3,0.3,0.6,0.6,0.6h7.5c0.8,0,1.4,0.6,1.4,1.4
            s-0.6,1.4-1.4,1.4h-7.5c-0.3,0-0.6,0.3-0.6,0.6v7.5C794.1,254.8,793.5,255.5,792.7,255.5z"/>
        <path class="content_st4" d="M265.6,385h-235c-9.4,0-17-7.6-17-17V262c0-9.4,7.6-17,17-17h235c9.4,0,17,7.6,17,17v106
            C282.6,377.4,275,385,265.6,385z M30.6,247c-8.3,0-15,6.7-15,15v106c0,8.3,6.7,15,15,15h235c8.3,0,15-6.7,15-15V262
            c0-8.3-6.7-15-15-15H30.6z"/>
        <path id="ecf93b7f-be09-422e-afbf-80018d7f0d55-2990" class="content_st5" d="M59.6,289.5c-2,0-3.6,1.7-3.6,3.7c0,2,1.6,3.5,3.6,3.6h176.9
            c2,0,3.7-1.6,3.7-3.6c0-2-1.6-3.7-3.6-3.7c0,0,0,0,0,0c0,0-0.1,0-0.1,0H59.6z"/>
        <path id="b0602f4a-66cd-4d7a-b0a7-046c73c9962a-2991" class="content_st5" d="M59.6,311.2c-2,0-3.6,1.7-3.6,3.7c0,2,1.6,3.5,3.6,3.6h176.9
            c2,0,3.7-1.6,3.7-3.6s-1.6-3.7-3.6-3.7c0,0,0,0,0,0c0,0-0.1,0-0.1,0H59.6z"/>
        <path id="a1984a5c-edd7-4811-b4da-a016d2274011-2992" class="content_st5" d="M59.6,333.2c-2,0-3.6,1.7-3.6,3.7c0,2,1.6,3.5,3.6,3.6h176.9
            c2,0,3.7-1.6,3.7-3.6s-1.6-3.7-3.6-3.7c0,0,0,0,0,0c0,0-0.1,0-0.1,0H59.6z"/>
        <path class="content_st2" d="M19.7,358.6c26.3,0.4,26.3,39.6,0,40C-6.6,398.1-6.6,359,19.7,358.6z"/>
        <path class="content_st1" d="M19.7,389.5c-0.8,0-1.4-0.6-1.4-1.4v-7.5c0-0.3-0.3-0.6-0.6-0.6h-7.5c-0.8,0-1.4-0.6-1.4-1.4s0.6-1.4,1.4-1.4
            h7.5c0.3,0,0.6-0.3,0.6-0.6v-7.5c0-0.8,0.6-1.4,1.4-1.4c0.8,0,1.4,0.6,1.4,1.4v7.5c0,0.3,0.3,0.6,0.6,0.6h7.5c0.8,0,1.4,0.6,1.4,1.4
            S30,380,29.2,380h-7.5c-0.3,0-0.6,0.3-0.6,0.6v7.5C21.1,388.8,20.5,389.5,19.7,389.5z"/>
        </svg>