<svg id="logo-black-text" xmlns="http://www.w3.org/2000/svg" viewBox="0 0 723.51 324.12"><defs><style>.cls-1{fill:#e86125;}.cls-2{fill:#231f20;}.cls-3{fill:none;stroke:#231f20;stroke-miterlimit:10;stroke-width:2px;}</style></defs><title>logo-black-text</title><path class="cls-1" d="M185.36,50.18h20.79V97.74s23.17-5.92,46.34.51c17.5,3.83,31.24,14,41.55,30.23l-9.59,8s-4.34-7.35-14.07-14.5c-12.27-9-30-14.43-50.87-9.44-5.76,1.52-13.36,7.12-13.36,15.62l-.54,27.13.54,74.32s-.54,15.73,10.23,18.8c9.12,3.17,23.23-.63,31-5.42l-1.44,17.9S217.36,275,199.64,263c0,0-5.73-3.74-9.37-12.23-2.66-6.2-4-15.51-4.37-29.18C185,189.4,185.36,50.18,185.36,50.18Z"/><path class="cls-1" d="M136.71,50v8.86c19.71-1.54,21.21,14.54,21.34,15.55s-.18,23-.18,23c-55.52-25.14-96.2,28-96.2,28l10.85,9S85,121.89,91.21,118.11c12.14-7.43,22.89-10.38,31.94-10.6,12.47-.29,21.7,4.6,26.91,10.15,6.5,6.93,5.73,16.43,5.73,16.43v32.28c-41.77-7.06-60.22,19.26-63.47,23.87a52.65,52.65,0,0,0-7.21,28.48c.41,16.81,7.9,32.61,24.57,42.86,26,16,47.74-5.43,47.74-5.43v11.4h22.51V50Zm18.81,193c-.8,2.8-14.53,9.37-28.19,5.69a29.7,29.7,0,0,1-13.07-7.84c-4.79-4.85-8-11.89-8.11-23.35a32.89,32.89,0,0,1,9-23.5C130,178.39,155.52,184,155.52,184Z"/><path class="cls-1" d="M89.88,262.66c-5.43.82-40.15-4.34-39.88-41.77s36.62-44.21,36.62-44.21S49.55,218.18,89.88,262.66Z"/><path class="cls-2" d="M348.36,184.28H309.53l-8.72,24.25h-12.6l35.39-92.68h10.69l35.45,92.68H357.2Zm-35.14-10h31.51l-15.79-43.35Z"/><path class="cls-2" d="M394.5,198.54h43.92v10h-56.2V115.85H394.5Z"/><path class="cls-2" d="M498.89,125.85H469.1v82.68H456.94V125.85H427.22v-10h71.67Z"/><path class="cls-2" d="M520.53,174H489.47v-9.61h31.06Z"/><path class="cls-2" d="M533.83,208.53V115.85H560a42.19,42.19,0,0,1,21.39,5.35,36.23,36.23,0,0,1,14.35,15.21,49.54,49.54,0,0,1,5.13,22.66V165q0,13.11-5.06,23a35.61,35.61,0,0,1-14.45,15.15,44.89,44.89,0,0,1-21.87,5.41Zm12.22-82.68v72.69h12.86q14.13,0,22-8.79t7.86-25v-5.42q0-15.79-7.41-24.56t-21-8.88Z"/><path class="cls-2" d="M314.42,221.61h-13v37.22h-5.32V221.61h-13v-4.49h31.36Z"/><path class="cls-2" d="M329.37,259.4a13,13,0,0,1-10-4.14q-3.84-4.14-3.84-11.07v-1a19,19,0,0,1,1.71-8.23,13.57,13.57,0,0,1,4.79-5.67,11.78,11.78,0,0,1,6.67-2.05,11.14,11.14,0,0,1,9.14,4q3.25,4,3.26,11.4v2.21H320.71a11.19,11.19,0,0,0,2.61,7.4,8.07,8.07,0,0,0,6.33,2.82,8.79,8.79,0,0,0,4.62-1.14,11.8,11.8,0,0,0,3.32-3l3.15,2.52Q336.94,259.4,329.37,259.4Zm-.64-27.79A6.76,6.76,0,0,0,323.5,234a11.45,11.45,0,0,0-2.62,6.54H336v-.4a10.31,10.31,0,0,0-2.11-6.26A6.4,6.4,0,0,0,328.73,231.61Z"/><path class="cls-2" d="M359.17,255.07a7.27,7.27,0,0,0,4.82-1.72,6.08,6.08,0,0,0,2.28-4.29h4.88a9.85,9.85,0,0,1-1.79,5.07A11.85,11.85,0,0,1,365,258a12.45,12.45,0,0,1-5.81,1.43,12.26,12.26,0,0,1-9.79-4.23q-3.63-4.21-3.63-11.56v-.88a19.22,19.22,0,0,1,1.61-8,12.55,12.55,0,0,1,4.64-5.47,12.9,12.9,0,0,1,7.14-2,11.91,11.91,0,0,1,8.43,3.12,11.29,11.29,0,0,1,3.58,8.11h-4.88a7.35,7.35,0,0,0-2.21-4.94,6.8,6.8,0,0,0-4.92-1.94,7.14,7.14,0,0,0-6.08,2.91q-2.16,2.91-2.16,8.41v1q0,5.35,2.14,8.25A7.18,7.18,0,0,0,359.17,255.07Z"/><path class="cls-2" d="M382.09,231.58a10.86,10.86,0,0,1,8.91-4.32q9.56,0,9.64,11.08v20.49h-5.15V238.31a7.29,7.29,0,0,0-1.49-4.95,5.88,5.88,0,0,0-4.56-1.61,7.29,7.29,0,0,0-4.4,1.38,9.36,9.36,0,0,0-3,3.61v22.09h-5.15v-44h5.15Z"/><path class="cls-2" d="M413.23,227.83l.17,3.9a10.85,10.85,0,0,1,9-4.47q9.56,0,9.63,11.08v20.49H426.9V238.31a7.24,7.24,0,0,0-1.49-4.95,5.86,5.86,0,0,0-4.55-1.61,7.27,7.27,0,0,0-4.4,1.38,9.27,9.27,0,0,0-2.95,3.61v22.09h-5.15v-31Z"/><path class="cls-2" d="M438.46,243a18.71,18.71,0,0,1,1.74-8.19,13.25,13.25,0,0,1,4.85-5.62,13,13,0,0,1,7.08-2,12.54,12.54,0,0,1,10,4.38q3.8,4.38,3.8,11.66v.37a18.93,18.93,0,0,1-1.68,8.12,12.83,12.83,0,0,1-12,7.61,12.54,12.54,0,0,1-9.93-4.38c-2.53-2.93-3.8-6.79-3.8-11.61Zm5.18.63A13.46,13.46,0,0,0,446,252a7.75,7.75,0,0,0,12.46,0q2.31-3.16,2.31-8.87a13.55,13.55,0,0,0-2.35-8.26,7.43,7.43,0,0,0-6.26-3.17,7.33,7.33,0,0,0-6.15,3.12C444.42,236.82,443.64,239.79,443.64,243.67Z"/><path class="cls-2" d="M478,258.83H472.8v-44H478Z"/><path class="cls-2" d="M484.83,243a18.71,18.71,0,0,1,1.74-8.19,13.25,13.25,0,0,1,4.85-5.62,13,13,0,0,1,7.08-2,12.54,12.54,0,0,1,10,4.38q3.8,4.38,3.8,11.66v.37a18.93,18.93,0,0,1-1.68,8.12,12.83,12.83,0,0,1-12,7.61,12.54,12.54,0,0,1-9.93-4.38c-2.53-2.93-3.8-6.79-3.8-11.61Zm5.18.63a13.46,13.46,0,0,0,2.33,8.28,7.75,7.75,0,0,0,12.46,0q2.31-3.16,2.31-8.87a13.55,13.55,0,0,0-2.35-8.26,7.43,7.43,0,0,0-6.26-3.17,7.33,7.33,0,0,0-6.15,3.12C490.79,236.82,490,239.79,490,243.67Z"/><path class="cls-2" d="M517.5,243.07q0-7.24,3.26-11.53a10.32,10.32,0,0,1,8.63-4.28,10.22,10.22,0,0,1,8.6,4l.26-3.44H543v30.25q0,6-3.47,9.48a12.58,12.58,0,0,1-9.31,3.47,15.23,15.23,0,0,1-6.38-1.43,11.06,11.06,0,0,1-4.76-3.93l2.67-3.18a10,10,0,0,0,8.11,4.21,7.77,7.77,0,0,0,5.86-2.17,8.49,8.49,0,0,0,2.1-6.13v-2.67a10.43,10.43,0,0,1-8.44,3.67,10.2,10.2,0,0,1-8.56-4.38Q517.5,250.63,517.5,243.07Zm5.18.6c0,3.5.69,6.24,2.09,8.24a6.73,6.73,0,0,0,5.84,3,7.54,7.54,0,0,0,7.16-4.55V236.19a7.61,7.61,0,0,0-7.1-4.44,6.8,6.8,0,0,0-5.88,3Q522.67,237.78,522.68,243.67Z"/><path class="cls-2" d="M550.75,219.61a3.23,3.23,0,0,1,.77-2.18,2.83,2.83,0,0,1,2.27-.89,2.88,2.88,0,0,1,2.28.89,3.18,3.18,0,0,1,.78,2.18,3.09,3.09,0,0,1-.78,2.15,2.93,2.93,0,0,1-2.28.86,2.88,2.88,0,0,1-2.27-.86A3.13,3.13,0,0,1,550.75,219.61Zm5.57,39.22h-5.15v-31h5.15Z"/><path class="cls-2" d="M577.07,259.4a13,13,0,0,1-10-4.14q-3.84-4.14-3.85-11.07v-1A19,19,0,0,1,565,235a13.57,13.57,0,0,1,4.79-5.67,11.76,11.76,0,0,1,6.67-2.05q5.88,0,9.13,4t3.26,11.4v2.21H568.41a11.18,11.18,0,0,0,2.6,7.4,8.08,8.08,0,0,0,6.34,2.82,8.79,8.79,0,0,0,4.62-1.14,11.77,11.77,0,0,0,3.31-3l3.15,2.52Q584.65,259.4,577.07,259.4Zm-.64-27.79a6.78,6.78,0,0,0-5.24,2.34,11.52,11.52,0,0,0-2.62,6.54h15.1v-.4a10.31,10.31,0,0,0-2.12-6.26A6.38,6.38,0,0,0,576.43,231.61Z"/><path class="cls-2" d="M612.33,250.6a3.93,3.93,0,0,0-1.58-3.33,14.73,14.73,0,0,0-5.48-2.05,25.36,25.36,0,0,1-6.21-2.06,8.88,8.88,0,0,1-3.4-2.87,6.93,6.93,0,0,1-1.1-3.95,8.13,8.13,0,0,1,3.13-6.45,12.06,12.06,0,0,1,8-2.63A12.34,12.34,0,0,1,614,230a8.72,8.72,0,0,1,3.19,7H612a4.83,4.83,0,0,0-1.8-3.75,6.59,6.59,0,0,0-4.52-1.58,6.9,6.9,0,0,0-4.4,1.26,4,4,0,0,0-1.59,3.3,3.23,3.23,0,0,0,1.48,2.89,17.71,17.71,0,0,0,5.33,1.86,27.27,27.27,0,0,1,6.25,2.12,9.11,9.11,0,0,1,3.55,3,7.42,7.42,0,0,1,1.16,4.22,8,8,0,0,1-3.23,6.66,13.32,13.32,0,0,1-8.39,2.51,14.79,14.79,0,0,1-6.4-1.32,10.46,10.46,0,0,1-4.36-3.68,9,9,0,0,1-1.57-5.11h5.15a5.52,5.52,0,0,0,2.07,4.22,7.91,7.91,0,0,0,5.11,1.56,8.17,8.17,0,0,0,4.7-1.21A3.78,3.78,0,0,0,612.33,250.6Z"/><path class="cls-2" d="M625.58,256.41h10.61v2.42H622.61v-22.4h3Z"/><path class="cls-2" d="M642.53,256.41h10.61v2.42H639.56v-22.4h3Z"/><path class="cls-2" d="M659.46,250.06v8.77h-3v-22.4h8.26a8.31,8.31,0,0,1,5.76,1.88,7.1,7.1,0,0,1,.05,10,8.71,8.71,0,0,1-5.84,1.76Zm0-2.42h5.31a5.33,5.33,0,0,0,3.63-1.11,4.09,4.09,0,0,0,1.26-3.23,4.22,4.22,0,0,0-1.26-3.21,5,5,0,0,0-3.46-1.24h-5.48Z"/><path class="cls-2" d="M616.19,128.92h-3.35v5.77h-1.9V120.42h4.73a5.53,5.53,0,0,1,3.71,1.1,3.92,3.92,0,0,1,1.3,3.19A3.86,3.86,0,0,1,620,127a4.34,4.34,0,0,1-2,1.48l3.35,6.06v.11h-2Zm-3.35-1.54h2.89a3.24,3.24,0,0,0,2.23-.73,2.45,2.45,0,0,0,.83-1.94,2.58,2.58,0,0,0-.79-2,3.33,3.33,0,0,0-2.28-.71h-2.88Z"/><circle class="cls-3" cx="615.45" cy="127.74" r="11.71"/></svg>