<svg xmlns="http://www.w3.org/2000/svg" xmlns:xlink="http://www.w3.org/1999/xlink" width="212.263" height="152.971" viewBox="0 0 212.263 152.971">
  <defs>
    <linearGradient id="linear-gradient" x1="0.5" x2="0.5" y2="1" gradientUnits="objectBoundingBox">
      <stop offset="0" stop-color="#fff"/>
      <stop offset="1" stop-color="#ff8d2b"/>
    </linearGradient>
    <linearGradient id="linear-gradient-2" x1="0.5" x2="0.5" y2="1" gradientUnits="objectBoundingBox">
      <stop offset="0" stop-color="#fff"/>
      <stop offset="1" stop-color="#ff972f"/>
    </linearGradient>
  </defs>
  <g id="Group_2442" data-name="Group 2442" transform="translate(-786.248 -595.374)">
    <path id="Path_6721" data-name="Path 6721" d="M803.861,855.2h212.263s-3.687-82.988-16.567-102.454-26.026,36.88-28.83,39.51-16.672,31.964-37.943-14.535-30.15-82.487-41.592-59.039-23.2,90.795-36.337,93.466S803.861,788.478,803.861,855.2Z" transform="translate(-17.613 -115.944)" fill="#ffeae2"/>
    <g id="Group_2414" data-name="Group 2414" transform="translate(849.288 618.471)">
      <g id="Group_2409" data-name="Group 2409" transform="translate(0)">
        <rect id="Rectangle_367" data-name="Rectangle 367" width="80.445" height="119.633" rx="5" fill="#1d1d1b"/>
        <rect id="Rectangle_368" data-name="Rectangle 368" width="71.533" height="95.558" rx="2" transform="translate(4.419 11.646)" fill="url(#linear-gradient)"/>
        <circle id="Ellipse_90" data-name="Ellipse 90" cx="2.918" cy="2.918" r="2.918" transform="translate(37.268 110.6)" fill="#621d1b"/>
      </g>
      <g id="Group_2413" data-name="Group 2413" transform="translate(13.27 73.305)">
        <rect id="Rectangle_369" data-name="Rectangle 369" width="19.751" height="1.985" rx="0.993" transform="translate(18.877 0.234)" fill="red"/>
        <rect id="Rectangle_370" data-name="Rectangle 370" width="19.751" height="1.985" rx="0.993" transform="translate(18.877 5.738)" fill="red"/>
        <rect id="Rectangle_371" data-name="Rectangle 371" width="37.973" height="1.985" rx="0.993" transform="translate(0.656 11.242)" fill="red"/>
        <rect id="Rectangle_372" data-name="Rectangle 372" width="37.973" height="1.985" rx="0.993" transform="translate(0.656 16.745)" fill="red"/>
        <rect id="Rectangle_373" data-name="Rectangle 373" width="4.54" height="1.985" rx="0.993" transform="translate(0.656 21.94)" fill="red"/>
        <rect id="Rectangle_374" data-name="Rectangle 374" width="10.085" height="1.985" rx="0.993" transform="translate(5.96 21.94)" fill="red"/>
        <g id="Group_2410" data-name="Group 2410" transform="translate(0 0)">
          <path id="Path_6682" data-name="Path 6682" d="M942.335,793.525a.653.653,0,0,1-.429-.16l-3.563-3.088a.656.656,0,0,1,.029-1.015l3.871-2.987a.656.656,0,1,1,.8,1.038l-3.236,2.5,2.957,2.562a.656.656,0,0,1-.43,1.152Z" transform="translate(-938.117 -786.138)" fill="red"/>
        </g>
        <g id="Group_2411" data-name="Group 2411" transform="translate(11.367)">
          <path id="Path_6683" data-name="Path 6683" d="M965.082,793.525a.656.656,0,0,1-.43-1.152l2.956-2.562-3.236-2.5a.656.656,0,0,1,.8-1.038l3.871,2.987a.656.656,0,0,1,.029,1.015l-3.562,3.088A.653.653,0,0,1,965.082,793.525Z" transform="translate(-964.116 -786.138)" fill="red"/>
        </g>
        <g id="Group_2412" data-name="Group 2412" transform="translate(6.108 0)">
          <path id="Path_6684" data-name="Path 6684" d="M952.743,793.76a.655.655,0,0,1-.588-.944l3.086-6.311a.656.656,0,0,1,1.179.577l-3.086,6.31A.655.655,0,0,1,952.743,793.76Z" transform="translate(-952.088 -786.138)" fill="red"/>
        </g>
      </g>
    </g>
    <g id="Group_2416" data-name="Group 2416" transform="translate(911.473 653.678)">
      <g id="Group_2415" data-name="Group 2415" transform="translate(0 0)">
        <rect id="Rectangle_375" data-name="Rectangle 375" width="32.456" height="58.945" rx="4"/>
        <circle id="Ellipse_91" data-name="Ellipse 91" cx="2.271" cy="2.271" r="2.271" transform="translate(14.06 52.893)" fill="#942900"/>
        <rect id="Rectangle_376" data-name="Rectangle 376" width="2.517" height="0.521" rx="0.26" transform="translate(14.923 1.244)" fill="#840b15"/>
      </g>
      <rect id="Rectangle_377" data-name="Rectangle 377" width="29.164" height="48.342" rx="2" transform="translate(1.749 3.395)" fill="url(#linear-gradient-2)"/>
    </g>
    <g id="Group_2417" data-name="Group 2417" transform="translate(938.769 696.245)">
      <path id="Path_6685" data-name="Path 6685" d="M1134.818,796.361l-8.465,4.111.72,1.852,7.191-1.4Z" transform="translate(-1120.267 -796.361)" fill="#ab551c"/>
      <path id="Path_6686" data-name="Path 6686" d="M1112.642,806.361a18.14,18.14,0,0,0,2.1,1.247,4.142,4.142,0,0,0,2.739,0,17.17,17.17,0,0,0,2.318-.967l-1.159-1.213s-1.524-.034-1.718-.075-2.585-.986-2.932-.485.791.753.791.753a14.653,14.653,0,0,1-2.238.135C1112.25,805.661,1112.642,806.361,1112.642,806.361Z" transform="translate(-1112.433 -801.067)" fill="#ffbcb2"/>
    </g>
    <g id="Group_2427" data-name="Group 2427" transform="translate(915.797 670.846)">
      <g id="Group_2420" data-name="Group 2420" transform="translate(0 0)">
        <g id="Group_2418" data-name="Group 2418" transform="translate(20.548 20.569)">
          <rect id="Rectangle_378" data-name="Rectangle 378" width="3.715" height="13.049" transform="translate(15.099 12.362) rotate(135.001)" fill="#3b1d1b"/>
          <rect id="Rectangle_379" data-name="Rectangle 379" width="2.508" height="2.145" transform="translate(5.408 3.644) rotate(135.001)" fill="#3b1d1b"/>
          <rect id="Rectangle_380" data-name="Rectangle 380" width="4.212" height="2.145" transform="translate(4.496 1.517) rotate(135.001)" fill="#3b1d1b"/>
        </g>
        <g id="Group_2419" data-name="Group 2419">
          <path id="Path_6687" data-name="Path 6687" d="M1074.273,738.319a13.23,13.23,0,1,1-14.333,12.026A13.23,13.23,0,0,1,1074.273,738.319Zm-2.134,24.394a11.257,11.257,0,1,0-10.233-12.2A11.27,11.27,0,0,0,1072.139,762.713Z" transform="translate(-1059.889 -738.268)" fill="#942900"/>
        </g>
      </g>
      <g id="Group_2426" data-name="Group 2426" transform="translate(8.162 8.022)">
        <g id="Group_2423" data-name="Group 2423">
          <line id="Line_256" data-name="Line 256" x2="2.289" transform="translate(7.458 5.354)" fill="none" stroke="#e94e1b" stroke-miterlimit="10" stroke-width="0.5"/>
          <line id="Line_257" data-name="Line 257" x1="2.353" transform="translate(0 5.354)" fill="none" stroke="#e94e1b" stroke-miterlimit="10" stroke-width="0.5"/>
          <path id="Path_6688" data-name="Path 6688" d="M1096.508,777.305v-1.311l-1.73-1.673" transform="translate(-1087.687 -766.581)" fill="none" stroke="#e94e1b" stroke-miterlimit="10" stroke-width="0.5"/>
          <path id="Path_6689" data-name="Path 6689" d="M1080.778,777.305v-1.311l1.73-1.673" transform="translate(-1079.808 -766.581)" fill="none" stroke="#e94e1b" stroke-miterlimit="10" stroke-width="0.5"/>
          <path id="Path_6690" data-name="Path 6690" d="M1091.059,757.912s.246-1.295.926-1.295h.376" transform="translate(-1085.594 -756.617)" fill="none" stroke="#e94e1b" stroke-miterlimit="10" stroke-width="0.5"/>
          <path id="Path_6691" data-name="Path 6691" d="M1086.361,757.912s-.246-1.295-.926-1.295h-.376" transform="translate(-1082.217 -756.617)" fill="none" stroke="#e94e1b" stroke-miterlimit="10" stroke-width="0.5"/>
          <g id="Group_2421" data-name="Group 2421" transform="translate(7.214 0.54)">
            <path id="Path_6692" data-name="Path 6692" d="M1095.058,760.563l1.608-1.361v-1.35" transform="translate(-1095.058 -757.853)" fill="none" stroke="#e94e1b" stroke-miterlimit="10" stroke-width="0.5"/>
            <line id="Line_258" data-name="Line 258" y1="1.361" x2="1.608" transform="translate(0 1.35)" fill="none" stroke="#e94e1b" stroke-miterlimit="10" stroke-width="0.5"/>
          </g>
          <g id="Group_2422" data-name="Group 2422" transform="translate(0.94 0.535)">
            <path id="Path_6693" data-name="Path 6693" d="M1082.316,760.552l-1.608-1.361v-1.35" transform="translate(-1080.708 -757.841)" fill="none" stroke="#e94e1b" stroke-miterlimit="10" stroke-width="0.5"/>
            <line id="Line_259" data-name="Line 259" x1="1.608" y1="1.361" transform="translate(0 1.35)" fill="none" stroke="#e94e1b" stroke-miterlimit="10" stroke-width="0.5"/>
          </g>
        </g>
        <g id="Group_2425" data-name="Group 2425" transform="translate(2.263 1.295)">
          <ellipse id="Ellipse_92" data-name="Ellipse 92" cx="2.67" cy="4.059" rx="2.67" ry="4.059" fill="#ff485f"/>
          <g id="Group_2424" data-name="Group 2424" transform="translate(0.349 1.956)">
            <path id="Path_6694" data-name="Path 6694" d="M1084.534,764.15s1.8,1.726,4.6-.1" transform="translate(-1084.534 -764.053)" fill="none" stroke="#fff" stroke-miterlimit="10" stroke-width="0.5"/>
            <line id="Line_260" data-name="Line 260" y2="5.321" transform="translate(2.197 0.837)" fill="none" stroke="#fff" stroke-miterlimit="10" stroke-width="0.5"/>
          </g>
        </g>
      </g>
    </g>
    <g id="Group_2431" data-name="Group 2431" transform="translate(947.595 675.168)">
      <g id="Group_2428" data-name="Group 2428" transform="translate(3.471 0)">
        <path id="Path_6695" data-name="Path 6695" d="M1141.772,752.557s.26,4.359.723,4.745,3.954,3.064,3.954,3.064l3.7-1.251L1149,757.264l-.463-6.558Z" transform="translate(-1141.241 -749.59)" fill="#ffbcb2"/>
        <path id="Path_6696" data-name="Path 6696" d="M1140.6,749.269s1.852.771,2.777,0,3.71-1.4,4.431-.983a2.9,2.9,0,0,1,1.2,2.6,23.761,23.761,0,0,0,0,4.089,1.527,1.527,0,0,1,.077,1s-1.08.752-1.187-1.957-.964-1.563-.964-1.563a29.814,29.814,0,0,0-.038,3.414c.125.366.415,1,.53,1.013a2.951,2.951,0,0,1-1.24,1.9,19.908,19.908,0,0,1-2.318.626,8.9,8.9,0,0,1-2.152-3.6c-.394-1.831,2.123,1.6,3.068.686s.916-1.736.627-3.626-.241-1.987-.9-1.755-2.613.617-3.105.338a2.029,2.029,0,0,1-.81-1.1A4.429,4.429,0,0,1,1140.6,749.269Z" transform="translate(-1140.559 -748.153)"/>
      </g>
      <g id="Group_2429" data-name="Group 2429" transform="translate(0 9.526)">
        <path id="Path_6697" data-name="Path 6697" d="M1150.48,769.941s-4.578.9-5.246,2.392-2.88,21.757-2.88,21.757h12.756Z" transform="translate(-1138.098 -769.941)" fill="#79551c"/>
        <path id="Path_6698" data-name="Path 6698" d="M1144.882,825.176l4.784,8.831,4.86,28.357H1157V827.7l-.463-2.52Z" transform="translate(-1139.521 -801.027)" fill="#c0551c"/>
        <path id="Path_6699" data-name="Path 6699" d="M1142.511,824.294l-1.02,35.762,2.871.268,3.626-27.2-4.42-8.831Z" transform="translate(-1137.613 -800.531)" fill="#ae551c"/>
        <path id="Path_6700" data-name="Path 6700" d="M1136.5,906.092l-3.487.845s-.88,1.082,0,1.545c1-.038,6.2,0,6.2,0l.19-2.39Z" transform="translate(-1132.62 -846.567)"/>
        <path id="Path_6701" data-name="Path 6701" d="M1161.877,910.235l-3.29.818a.862.862,0,0,0-.3,1.5h6.057v-2.315Z" transform="translate(-1146.872 -848.898)"/>
      </g>
      <g id="Group_2430" data-name="Group 2430" transform="translate(0.394 9.812)">
        <path id="Path_6702" data-name="Path 6702" d="M1153.921,770.9s3.138.836,4.233,7.717c.492,3.095.793,8.543.793,8.543l-10.577,3.658-1.546-2.224,7.921-4.237-2.88-11.554S1151.812,769.615,1153.921,770.9Z" transform="translate(-1141.007 -770.595)" fill="#ab551c"/>
        <path id="Path_6703" data-name="Path 6703" d="M1133.73,812.714a18.148,18.148,0,0,0,2.1,1.247,4.143,4.143,0,0,0,2.739,0,17.186,17.186,0,0,0,2.318-.967l-1.159-1.213s-1.525-.034-1.718-.075-2.585-.986-2.932-.484.791.752.791.752a14.65,14.65,0,0,1-2.237.135C1133.338,812.014,1133.73,812.714,1133.73,812.714Z" transform="translate(-1133.521 -793.378)" fill="#ffbcb2"/>
      </g>
    </g>
    <g id="Group_2432" data-name="Group 2432" transform="translate(838.121 682.001)">
      <path id="Path_6704" data-name="Path 6704" d="M882.222,763.783l8.465,4.111-.72,1.852-7.191-1.4Z" transform="translate(-882.222 -763.783)" fill="#ab551c"/>
      <path id="Path_6705" data-name="Path 6705" d="M905.818,773.783a18.136,18.136,0,0,1-2.1,1.247,4.145,4.145,0,0,1-2.739,0,17.149,17.149,0,0,1-2.318-.967l1.159-1.212s1.525-.034,1.718-.075,2.585-.986,2.932-.484-.791.752-.791.752a14.6,14.6,0,0,0,2.238.135C906.21,773.083,905.818,773.783,905.818,773.783Z" transform="translate(-891.476 -768.489)" fill="#ffbcb2"/>
    </g>
    <g id="Group_2436" data-name="Group 2436" transform="translate(840.533 639.122)">
      <g id="Group_2433" data-name="Group 2433" transform="translate(0 30.47)">
        <rect id="Rectangle_381" data-name="Rectangle 381" width="5.763" height="20.242" transform="translate(15.506 4.454) rotate(50)" fill="#3b1d1b"/>
        <rect id="Rectangle_382" data-name="Rectangle 382" width="3.891" height="3.328" transform="translate(18.703 3.163) rotate(50)" fill="#3b1d1b"/>
        <rect id="Rectangle_383" data-name="Rectangle 383" width="6.534" height="3.328" transform="translate(20.401 0) rotate(50)" fill="#3b1d1b"/>
      </g>
      <g id="Group_2435" data-name="Group 2435" transform="translate(16.779 0)">
        <g id="Group_2434" data-name="Group 2434" transform="translate(6.92 8.022)">
          <path id="Path_6706" data-name="Path 6706" d="M974.655,691.075c.18-1.878-1.53-1.689-2.006-1.415-1.414,1.775-5.709,7.124-5.709,7.124l.056.033a3.388,3.388,0,1,0,3.6,2.132h0S973.677,693.106,974.655,691.075Zm-7.212,10.42a1.327,1.327,0,1,1,1.327-1.327A1.327,1.327,0,0,1,967.443,701.495Z" transform="translate(-954.391 -687.112)" fill="#942900"/>
          <path id="Path_6707" data-name="Path 6707" d="M958.45,684.523l-2.125,2.684a9.511,9.511,0,0,0-1.329-.092,10,10,0,0,0-9.046,14.24h-3.3A13.058,13.058,0,0,1,955,684.055,12.839,12.839,0,0,1,958.45,684.523Z" transform="translate(-941.946 -684.055)" fill="#ff7235"/>
          <circle id="Ellipse_93" data-name="Ellipse 93" cx="1.42" cy="1.42" r="1.42" transform="translate(20.838 6.965)" fill="#ff7235"/>
          <circle id="Ellipse_94" data-name="Ellipse 94" cx="1.42" cy="1.42" r="1.42" transform="translate(21.635 13.056)" fill="#ff7235"/>
        </g>
        <path id="Path_6708" data-name="Path 6708" d="M946.641,665.706a20.523,20.523,0,1,0,20.523,20.523A20.523,20.523,0,0,0,946.641,665.706Zm0,37.985A17.462,17.462,0,1,1,964.1,686.228,17.482,17.482,0,0,1,946.641,703.691Z" transform="translate(-926.118 -665.706)" fill="#942900"/>
      </g>
    </g>
    <g id="Group_2440" data-name="Group 2440" transform="translate(825.513 658.872)">
      <g id="Group_2437" data-name="Group 2437" transform="translate(0.859 11.578)">
        <path id="Path_6709" data-name="Path 6709" d="M861.037,737.362s4.578.9,5.246,2.392,2.88,21.757,2.88,21.757H856.408Z" transform="translate(-855.945 -737.362)" fill="#79551c"/>
        <path id="Path_6710" data-name="Path 6710" d="M867.462,792.6l-4.784,8.83-4.861,28.357h-2.469V795.118l.463-2.52Z" transform="translate(-855.349 -768.449)" fill="#c0551c"/>
        <path id="Path_6711" data-name="Path 6711" d="M877.062,791.715l1.02,35.762-2.871.268-3.626-27.2,4.42-8.831Z" transform="translate(-864.486 -767.952)" fill="#ae551c"/>
        <path id="Path_6712" data-name="Path 6712" d="M882.7,873.513l3.487.846s.88,1.082,0,1.545c-1-.038-6.2,0-6.2,0l-.19-2.39Z" transform="translate(-869.108 -813.988)"/>
        <path id="Path_6713" data-name="Path 6713" d="M857.818,877.656l3.29.819a.862.862,0,0,1,.3,1.5h-6.057v-2.315Z" transform="translate(-855.349 -816.319)"/>
      </g>
      <g id="Group_2438" data-name="Group 2438" transform="translate(0 11.864)">
        <path id="Path_6714" data-name="Path 6714" d="M858.41,738.322s-3.137.836-4.232,7.717c-.492,3.094-.793,8.542-.793,8.542l10.576,3.658,1.547-2.224-7.921-4.237,2.88-11.554S860.519,737.036,858.41,738.322Z" transform="translate(-853.385 -738.016)" fill="#ab551c"/>
        <path id="Path_6715" data-name="Path 6715" d="M884.729,780.136a18.14,18.14,0,0,1-2.1,1.247,4.15,4.15,0,0,1-2.739,0,17.161,17.161,0,0,1-2.318-.967l1.159-1.212s1.524-.034,1.718-.075,2.585-.986,2.932-.484-.791.752-.791.752a14.6,14.6,0,0,0,2.238.135C885.121,779.436,884.729,780.136,884.729,780.136Z" transform="translate(-867 -760.799)" fill="#ffbcb2"/>
      </g>
      <g id="Group_2439" data-name="Group 2439" transform="translate(2.204)">
        <path id="Path_6716" data-name="Path 6716" d="M867,735.586l.241-1.379,3.439,1.666.1.915S867.02,735.462,867,735.586Z" transform="translate(-863.249 -724.008)" fill="#e3a6b2"/>
        <path id="Path_6717" data-name="Path 6717" d="M864.793,725a4.933,4.933,0,0,0,3.6,1.525,1.7,1.7,0,0,0,1.9-2.014s-1.363-6.043-2.057-6.764-6.121,1.363-6.121,1.363Z" transform="translate(-860.504 -714.659)" fill="#ffbcb2"/>
        <path id="Path_6718" data-name="Path 6718" d="M862.638,721.631l.154-2.433s-.283.247-.36-.5.334-1.08.669-.849.463-.072.463-.072-.9-1.677-.309-2.114,3.5-1.594,3.806-2.623a5.767,5.767,0,0,0,.411-2.083c-.1-.154-5.786-.334-7.561,2.16s-2.34,4.732.463,7.1S862.638,721.631,862.638,721.631Z" transform="translate(-858.426 -710.88)"/>
      </g>
    </g>
    <g id="Group_2441" data-name="Group 2441" transform="translate(813.465 631.146)">
      <path id="Path_6719" data-name="Path 6719" d="M836.327,676.393a.8.8,0,0,1,0-1.185l1.025-.925a.8.8,0,0,0-.576-1.39l-1.378.07a.8.8,0,0,1-.838-.838l.07-1.379a.8.8,0,0,0-1.39-.576l-.925,1.024a.8.8,0,0,1-1.185,0l-.925-1.024a.8.8,0,0,0-1.39.576l.07,1.379a.8.8,0,0,1-.838.838l-1.378-.07a.8.8,0,0,0-.576,1.39l1.024.925a.8.8,0,0,1,0,1.185l-1.024.925a.8.8,0,0,0,.576,1.39l1.378-.07a.8.8,0,0,1,.838.838l-.07,1.378a.8.8,0,0,0,1.39.576l.925-1.025a.8.8,0,0,1,1.185,0l.925,1.025a.8.8,0,0,0,1.39-.576l-.07-1.378a.8.8,0,0,1,.838-.838l1.378.07a.8.8,0,0,0,.576-1.39Zm-4.605.894a1.487,1.487,0,1,1,1.487-1.486A1.486,1.486,0,0,1,831.722,677.288Z" transform="translate(-825.827 -660.094)" fill="#7d4e24"/>
      <path id="Path_6720" data-name="Path 6720" d="M852.335,653.951a.8.8,0,0,1,0-1.185l1.025-.925a.8.8,0,0,0-.576-1.39l-1.379.07a.8.8,0,0,1-.839-.838l.071-1.379a.8.8,0,0,0-1.39-.576l-.925,1.024a.8.8,0,0,1-1.185,0l-.925-1.024a.8.8,0,0,0-1.39.576l.07,1.379a.8.8,0,0,1-.838.838l-1.378-.07a.8.8,0,0,0-.576,1.39l1.024.925a.8.8,0,0,1,0,1.185l-1.024.925a.8.8,0,0,0,.576,1.39l1.378-.07a.8.8,0,0,1,.838.838l-.07,1.378a.8.8,0,0,0,1.39.576l.925-1.025a.8.8,0,0,1,1.185,0l.925,1.025a.8.8,0,0,0,1.39-.576l-.071-1.378a.8.8,0,0,1,.839-.838l1.379.07a.8.8,0,0,0,.576-1.39Zm-4.6.894a1.487,1.487,0,1,1,1.486-1.486A1.487,1.487,0,0,1,847.73,654.846Z" transform="translate(-834.836 -647.464)" fill="#e34747"/>
    </g>
    <path id="Path_6722" data-name="Path 6722" d="M891.334,887.457h-47.94s.833-11.392,3.742-14.064,5.878,5.062,6.511,5.423,3.766,4.388,8.57-2,6.809-11.323,9.394-8.1,5.24,12.463,8.207,12.83S891.334,878.3,891.334,887.457Z" transform="translate(-14.692 -143.48)" fill="#f08258" opacity="0.68"/>
  </g>
</svg>
